<svg width="666" height="260" viewBox="0 0 666 260" fill="none" xmlns="http://www.w3.org/2000/svg">
<path d="M2.24 28.6C2.24 24.2053 3.22133 20.28 5.184 16.824C7.18933 13.3253 9.89867 10.616 13.312 8.696C16.768 6.73333 20.6293 5.752 24.896 5.752C29.888 5.752 34.2613 7.032 38.016 9.592C41.7707 12.152 44.3947 15.6933 45.888 20.216H35.584C34.56 18.0827 33.1093 16.4827 31.232 15.416C29.3973 14.3493 27.264 13.816 24.832 13.816C22.2293 13.816 19.904 14.4347 17.856 15.672C15.8507 16.8667 14.272 18.5733 13.12 20.792C12.0107 23.0107 11.456 25.6133 11.456 28.6C11.456 31.544 12.0107 34.1467 13.12 36.408C14.272 38.6267 15.8507 40.3547 17.856 41.592C19.904 42.7867 22.2293 43.384 24.832 43.384C27.264 43.384 29.3973 42.8507 31.232 41.784C33.1093 40.6747 34.56 39.0533 35.584 36.92H45.888C44.3947 41.4853 41.7707 45.048 38.016 47.608C34.304 50.1253 29.9307 51.384 24.896 51.384C20.6293 51.384 16.768 50.424 13.312 48.504C9.89867 46.5413 7.18933 43.832 5.184 40.376C3.22133 36.92 2.24 32.9947 2.24 28.6ZM69.285 51.576C65.8717 51.576 62.7997 50.8293 60.069 49.336C57.3383 47.8 55.1837 45.6453 53.605 42.872C52.069 40.0987 51.301 36.8987 51.301 33.272C51.301 29.6453 52.0903 26.4453 53.669 23.672C55.2903 20.8987 57.4877 18.7653 60.261 17.272C63.0343 15.736 66.1277 14.968 69.541 14.968C72.9543 14.968 76.0477 15.736 78.821 17.272C81.5943 18.7653 83.7703 20.8987 85.349 23.672C86.9703 26.4453 87.781 29.6453 87.781 33.272C87.781 36.8987 86.949 40.0987 85.285 42.872C83.6637 45.6453 81.445 47.8 78.629 49.336C75.8557 50.8293 72.741 51.576 69.285 51.576ZM69.285 43.768C70.9063 43.768 72.421 43.384 73.829 42.616C75.2797 41.8053 76.4317 40.6107 77.285 39.032C78.1383 37.4533 78.565 35.5333 78.565 33.272C78.565 29.9013 77.669 27.32 75.877 25.528C74.1277 23.6933 71.973 22.776 69.413 22.776C66.853 22.776 64.6983 23.6933 62.949 25.528C61.2423 27.32 60.389 29.9013 60.389 33.272C60.389 36.6427 61.221 39.2453 62.885 41.08C64.5917 42.872 66.725 43.768 69.285 43.768ZM114.002 15.032C118.226 15.032 121.639 16.376 124.242 19.064C126.844 21.7093 128.146 25.4213 128.146 30.2V51H119.186V31.416C119.186 28.6 118.482 26.4453 117.074 24.952C115.666 23.416 113.746 22.648 111.314 22.648C108.839 22.648 106.876 23.416 105.426 24.952C104.018 26.4453 103.314 28.6 103.314 31.416V51H94.3535V15.544H103.314V19.96C104.508 18.424 106.023 17.2293 107.858 16.376C109.735 15.48 111.783 15.032 114.002 15.032ZM147.098 22.904V40.056C147.098 41.2507 147.375 42.1253 147.93 42.68C148.527 43.192 149.509 43.448 150.874 43.448H155.034V51H149.402C141.85 51 138.074 47.3307 138.074 39.992V22.904H133.85V15.544H138.074V6.776H147.098V15.544H155.034V22.904H147.098ZM170.439 21.048C171.591 19.1707 173.084 17.6987 174.919 16.632C176.796 15.5653 178.929 15.032 181.319 15.032V24.44H178.951C176.135 24.44 174.001 25.1013 172.551 26.424C171.143 27.7467 170.439 30.0507 170.439 33.336V51H161.479V15.544H170.439V21.048ZM203.098 51.576C199.684 51.576 196.612 50.8293 193.882 49.336C191.151 47.8 188.996 45.6453 187.418 42.872C185.882 40.0987 185.114 36.8987 185.114 33.272C185.114 29.6453 185.903 26.4453 187.482 23.672C189.103 20.8987 191.3 18.7653 194.074 17.272C196.847 15.736 199.94 14.968 203.354 14.968C206.767 14.968 209.86 15.736 212.634 17.272C215.407 18.7653 217.583 20.8987 219.162 23.672C220.783 26.4453 221.594 29.6453 221.594 33.272C221.594 36.8987 220.762 40.0987 219.097 42.872C217.476 45.6453 215.258 47.8 212.442 49.336C209.668 50.8293 206.554 51.576 203.098 51.576ZM203.098 43.768C204.719 43.768 206.234 43.384 207.642 42.616C209.092 41.8053 210.244 40.6107 211.098 39.032C211.951 37.4533 212.378 35.5333 212.378 33.272C212.378 29.9013 211.482 27.32 209.69 25.528C207.94 23.6933 205.786 22.776 203.226 22.776C200.666 22.776 198.511 23.6933 196.762 25.528C195.055 27.32 194.202 29.9013 194.202 33.272C194.202 36.6427 195.034 39.2453 196.698 41.08C198.404 42.872 200.538 43.768 203.098 43.768ZM237.126 3.64V51H228.166V3.64H237.126ZM270.189 13.56V24.76H285.229V31.864H270.189V43.704H287.149V51H261.229V6.264H287.149V13.56H270.189ZM310.075 42.744L319.035 15.544H328.571L315.451 51H304.571L291.515 15.544H301.115L310.075 42.744ZM366.564 32.504C366.564 33.784 366.478 34.936 366.308 35.96H340.388C340.601 38.52 341.497 40.5253 343.076 41.976C344.654 43.4267 346.596 44.152 348.9 44.152C352.228 44.152 354.596 42.7227 356.004 39.864H365.668C364.644 43.2773 362.681 46.0933 359.78 48.312C356.878 50.488 353.316 51.576 349.092 51.576C345.678 51.576 342.606 50.8293 339.876 49.336C337.188 47.8 335.076 45.6453 333.54 42.872C332.046 40.0987 331.299 36.8987 331.299 33.272C331.299 29.6027 332.046 26.3813 333.54 23.608C335.033 20.8347 337.124 18.7013 339.812 17.208C342.5 15.7147 345.593 14.968 349.092 14.968C352.462 14.968 355.47 15.6933 358.116 17.144C360.804 18.5947 362.873 20.664 364.324 23.352C365.817 25.9973 366.564 29.048 366.564 32.504ZM357.284 29.944C357.241 27.64 356.409 25.8053 354.788 24.44C353.166 23.032 351.182 22.328 348.836 22.328C346.617 22.328 344.74 23.0107 343.204 24.376C341.71 25.6987 340.793 27.5547 340.452 29.944H357.284ZM382.064 21.048C383.216 19.1707 384.709 17.6987 386.544 16.632C388.421 15.5653 390.554 15.032 392.944 15.032V24.44H390.576C387.76 24.44 385.626 25.1013 384.176 26.424C382.768 27.7467 382.064 30.0507 382.064 33.336V51H373.104V15.544H382.064V21.048ZM432.899 15.544L410.947 67.768H401.411L409.091 50.104L394.883 15.544H404.931L414.083 40.312L423.363 15.544H432.899ZM468.595 6.328C473.288 6.328 477.405 7.24533 480.947 9.08C484.531 10.9147 487.283 13.5387 489.203 16.952C491.165 20.3227 492.147 24.248 492.147 28.728C492.147 33.208 491.165 37.1333 489.203 40.504C487.283 43.832 484.531 46.4133 480.947 48.248C477.405 50.0827 473.288 51 468.595 51H452.979V6.328H468.595ZM468.275 43.384C472.968 43.384 476.595 42.104 479.155 39.544C481.715 36.984 482.995 33.3787 482.995 28.728C482.995 24.0773 481.715 20.4507 479.155 17.848C476.595 15.2027 472.968 13.88 468.275 13.88H461.939V43.384H468.275ZM531.814 32.504C531.814 33.784 531.728 34.936 531.558 35.96H505.638C505.851 38.52 506.747 40.5253 508.326 41.976C509.904 43.4267 511.846 44.152 514.15 44.152C517.478 44.152 519.846 42.7227 521.254 39.864H530.918C529.894 43.2773 527.931 46.0933 525.03 48.312C522.128 50.488 518.566 51.576 514.342 51.576C510.928 51.576 507.856 50.8293 505.126 49.336C502.438 47.8 500.326 45.6453 498.79 42.872C497.296 40.0987 496.549 36.8987 496.549 33.272C496.549 29.6027 497.296 26.3813 498.79 23.608C500.283 20.8347 502.374 18.7013 505.062 17.208C507.75 15.7147 510.843 14.968 514.342 14.968C517.712 14.968 520.72 15.6933 523.366 17.144C526.054 18.5947 528.123 20.664 529.574 23.352C531.067 25.9973 531.814 29.048 531.814 32.504ZM522.534 29.944C522.491 27.64 521.659 25.8053 520.038 24.44C518.416 23.032 516.432 22.328 514.086 22.328C511.867 22.328 509.99 23.0107 508.454 24.376C506.96 25.6987 506.043 27.5547 505.702 29.944H522.534ZM553.138 42.744L562.098 15.544H571.634L558.514 51H547.634L534.578 15.544H544.178L553.138 42.744ZM581.21 11.32C579.631 11.32 578.309 10.8293 577.242 9.848C576.218 8.824 575.706 7.56533 575.706 6.072C575.706 4.57866 576.218 3.34133 577.242 2.36C578.309 1.336 579.631 0.823997 581.21 0.823997C582.789 0.823997 584.09 1.336 585.114 2.36C586.181 3.34133 586.714 4.57866 586.714 6.072C586.714 7.56533 586.181 8.824 585.114 9.848C584.09 10.8293 582.789 11.32 581.21 11.32ZM585.626 15.544V51H576.666V15.544H585.626ZM592.174 33.272C592.174 29.6027 592.921 26.4027 594.415 23.672C595.908 20.8987 597.977 18.7653 600.623 17.272C603.268 15.736 606.297 14.968 609.711 14.968C614.105 14.968 617.732 16.0773 620.591 18.296C623.492 20.472 625.433 23.544 626.415 27.512H616.751C616.239 25.976 615.364 24.7813 614.127 23.928C612.932 23.032 611.439 22.584 609.647 22.584C607.087 22.584 605.06 23.5227 603.567 25.4C602.073 27.2347 601.327 29.8587 601.327 33.272C601.327 36.6427 602.073 39.2667 603.567 41.144C605.06 42.9787 607.087 43.896 609.647 43.896C613.273 43.896 615.641 42.2747 616.751 39.032H626.415C625.433 42.872 623.492 45.9227 620.591 48.184C617.689 50.4453 614.063 51.576 609.711 51.576C606.297 51.576 603.268 50.8293 600.623 49.336C597.977 47.8 595.908 45.6667 594.415 42.936C592.921 40.1627 592.174 36.9413 592.174 33.272ZM665.939 32.504C665.939 33.784 665.853 34.936 665.683 35.96H639.763C639.976 38.52 640.872 40.5253 642.451 41.976C644.029 43.4267 645.971 44.152 648.275 44.152C651.603 44.152 653.971 42.7227 655.379 39.864H665.043C664.019 43.2773 662.056 46.0933 659.155 48.312C656.253 50.488 652.691 51.576 648.467 51.576C645.053 51.576 641.981 50.8293 639.251 49.336C636.563 47.8 634.451 45.6453 632.915 42.872C631.421 40.0987 630.674 36.8987 630.674 33.272C630.674 29.6027 631.421 26.3813 632.915 23.608C634.408 20.8347 636.499 18.7013 639.187 17.208C641.875 15.7147 644.968 14.968 648.467 14.968C651.837 14.968 654.845 15.6933 657.491 17.144C660.179 18.5947 662.248 20.664 663.699 23.352C665.192 25.9973 665.939 29.048 665.939 32.504ZM656.659 29.944C656.616 27.64 655.784 25.8053 654.163 24.44C652.541 23.032 650.557 22.328 648.211 22.328C645.992 22.328 644.115 23.0107 642.579 24.376C641.085 25.6987 640.168 27.5547 639.827 29.944H656.659ZM39.936 102.328L24.832 131.448V147H15.872V131.448L0.704 102.328H10.816L20.416 122.744L29.952 102.328H39.936ZM60.8475 147.576C57.4342 147.576 54.3622 146.829 51.6315 145.336C48.9008 143.8 46.7462 141.645 45.1675 138.872C43.6315 136.099 42.8635 132.899 42.8635 129.272C42.8635 125.645 43.6528 122.445 45.2315 119.672C46.8528 116.899 49.0502 114.765 51.8235 113.272C54.5968 111.736 57.6902 110.968 61.1035 110.968C64.5168 110.968 67.6102 111.736 70.3835 113.272C73.1568 114.765 75.3328 116.899 76.9115 119.672C78.5328 122.445 79.3435 125.645 79.3435 129.272C79.3435 132.899 78.5115 136.099 76.8475 138.872C75.2262 141.645 73.0075 143.8 70.1915 145.336C67.4182 146.829 64.3035 147.576 60.8475 147.576ZM60.8475 139.768C62.4688 139.768 63.9835 139.384 65.3915 138.616C66.8422 137.805 67.9942 136.611 68.8475 135.032C69.7008 133.453 70.1275 131.533 70.1275 129.272C70.1275 125.901 69.2315 123.32 67.4395 121.528C65.6902 119.693 63.5355 118.776 60.9755 118.776C58.4155 118.776 56.2608 119.693 54.5115 121.528C52.8048 123.32 51.9515 125.901 51.9515 129.272C51.9515 132.643 52.7835 135.245 54.4475 137.08C56.1542 138.872 58.2875 139.768 60.8475 139.768ZM119.388 111.544V147H110.364V142.52C109.212 144.056 107.697 145.272 105.82 146.168C103.985 147.021 101.98 147.448 99.804 147.448C97.0307 147.448 94.5773 146.872 92.444 145.72C90.3107 144.525 88.6253 142.797 87.388 140.536C86.1933 138.232 85.596 135.501 85.596 132.344V111.544H94.556V131.064C94.556 133.88 95.26 136.056 96.668 137.592C98.076 139.085 99.996 139.832 102.428 139.832C104.903 139.832 106.844 139.085 108.252 137.592C109.66 136.056 110.364 133.88 110.364 131.064V111.544H119.388ZM164.215 147.448C160.033 147.448 156.193 146.467 152.695 144.504C149.196 142.541 146.423 139.832 144.375 136.376C142.327 132.877 141.303 128.931 141.303 124.536C141.303 120.184 142.327 116.28 144.375 112.824C146.423 109.325 149.196 106.595 152.695 104.632C156.193 102.669 160.033 101.688 164.215 101.688C168.439 101.688 172.279 102.669 175.735 104.632C179.233 106.595 181.985 109.325 183.991 112.824C186.039 116.28 187.063 120.184 187.063 124.536C187.063 128.931 186.039 132.877 183.991 136.376C181.985 139.832 179.233 142.541 175.735 144.504C172.236 146.467 168.396 147.448 164.215 147.448ZM164.215 139.448C166.903 139.448 169.271 138.851 171.319 137.656C173.367 136.419 174.967 134.669 176.119 132.408C177.271 130.147 177.847 127.523 177.847 124.536C177.847 121.549 177.271 118.947 176.119 116.728C174.967 114.467 173.367 112.739 171.319 111.544C169.271 110.349 166.903 109.752 164.215 109.752C161.527 109.752 159.137 110.349 157.047 111.544C154.999 112.739 153.399 114.467 152.247 116.728C151.095 118.947 150.519 121.549 150.519 124.536C150.519 127.523 151.095 130.147 152.247 132.408C153.399 134.669 154.999 136.419 157.047 137.656C159.137 138.851 161.527 139.448 164.215 139.448ZM242.881 111.544L232.513 147H222.849L216.385 122.232L209.921 147H200.193L189.761 111.544H198.849L205.121 138.552L211.905 111.544H221.377L228.033 138.488L234.305 111.544H242.881ZM267.377 111.032C271.601 111.032 275.014 112.376 277.617 115.064C280.219 117.709 281.521 121.421 281.521 126.2V147H272.561V127.416C272.561 124.6 271.857 122.445 270.449 120.952C269.041 119.416 267.121 118.648 264.689 118.648C262.214 118.648 260.251 119.416 258.801 120.952C257.393 122.445 256.689 124.6 256.689 127.416V147H247.729V111.544H256.689V115.96C257.883 114.424 259.398 113.229 261.233 112.376C263.11 111.48 265.158 111.032 267.377 111.032ZM332.875 102.328V109.56H314.251V121.016H328.523V128.12H314.251V147H305.291V102.328H332.875ZM348.189 117.048C349.341 115.171 350.834 113.699 352.669 112.632C354.546 111.565 356.679 111.032 359.069 111.032V120.44H356.701C353.885 120.44 351.751 121.101 350.301 122.424C348.893 123.747 348.189 126.051 348.189 129.336V147H339.229V111.544H348.189V117.048ZM380.848 147.576C377.434 147.576 374.362 146.829 371.632 145.336C368.901 143.8 366.746 141.645 365.168 138.872C363.632 136.099 362.864 132.899 362.864 129.272C362.864 125.645 363.653 122.445 365.232 119.672C366.853 116.899 369.05 114.765 371.824 113.272C374.597 111.736 377.69 110.968 381.104 110.968C384.517 110.968 387.61 111.736 390.384 113.272C393.157 114.765 395.333 116.899 396.912 119.672C398.533 122.445 399.344 125.645 399.344 129.272C399.344 132.899 398.512 136.099 396.847 138.872C395.226 141.645 393.008 143.8 390.192 145.336C387.418 146.829 384.304 147.576 380.848 147.576ZM380.848 139.768C382.469 139.768 383.984 139.384 385.392 138.616C386.842 137.805 387.994 136.611 388.848 135.032C389.701 133.453 390.128 131.533 390.128 129.272C390.128 125.901 389.232 123.32 387.44 121.528C385.69 119.693 383.536 118.776 380.976 118.776C378.416 118.776 376.261 119.693 374.512 121.528C372.805 123.32 371.952 125.901 371.952 129.272C371.952 132.643 372.784 135.245 374.448 137.08C376.154 138.872 378.288 139.768 380.848 139.768ZM449.948 111.032C454.3 111.032 457.799 112.376 460.444 115.064C463.132 117.709 464.476 121.421 464.476 126.2V147H455.516V127.416C455.516 124.643 454.812 122.531 453.404 121.08C451.996 119.587 450.076 118.84 447.644 118.84C445.212 118.84 443.271 119.587 441.82 121.08C440.412 122.531 439.708 124.643 439.708 127.416V147H430.748V127.416C430.748 124.643 430.044 122.531 428.636 121.08C427.228 119.587 425.308 118.84 422.876 118.84C420.401 118.84 418.439 119.587 416.988 121.08C415.58 122.531 414.876 124.643 414.876 127.416V147H405.916V111.544H414.876V115.832C416.028 114.339 417.5 113.165 419.292 112.312C421.127 111.459 423.132 111.032 425.308 111.032C428.081 111.032 430.556 111.629 432.732 112.824C434.908 113.976 436.593 115.64 437.788 117.816C438.94 115.768 440.604 114.125 442.78 112.888C444.999 111.651 447.388 111.032 449.948 111.032ZM31.808 234.488H14.016L11.072 243H1.664L17.728 198.264H28.16L44.224 243H34.752L31.808 234.488ZM29.376 227.32L22.912 208.632L16.448 227.32H29.376ZM69.8765 207.032C74.1005 207.032 77.5138 208.376 80.1165 211.064C82.7192 213.709 84.0205 217.421 84.0205 222.2V243H75.0605V223.416C75.0605 220.6 74.3565 218.445 72.9485 216.952C71.5405 215.416 69.6205 214.648 67.1885 214.648C64.7138 214.648 62.7512 215.416 61.3005 216.952C59.8925 218.445 59.1885 220.6 59.1885 223.416V243H50.2285V207.544H59.1885V211.96C60.3832 210.424 61.8978 209.229 63.7325 208.376C65.6098 207.48 67.6578 207.032 69.8765 207.032ZM126.461 207.544L104.509 259.768H94.973L102.653 242.104L88.445 207.544H98.493L107.645 232.312L116.925 207.544H126.461ZM180.443 207.544L170.075 243H160.411L153.947 218.232L147.483 243H137.755L127.323 207.544H136.411L142.683 234.552L149.467 207.544H158.939L165.595 234.488L171.867 207.544H180.443ZM205.259 207.032C207.947 207.032 210.336 207.629 212.427 208.824C214.518 209.976 216.139 211.704 217.291 214.008C218.486 216.269 219.083 219 219.083 222.2V243H210.123V223.416C210.123 220.6 209.419 218.445 208.011 216.952C206.603 215.416 204.683 214.648 202.251 214.648C199.776 214.648 197.814 215.416 196.363 216.952C194.955 218.445 194.251 220.6 194.251 223.416V243H185.291V195.64H194.251V211.96C195.403 210.424 196.939 209.229 198.859 208.376C200.779 207.48 202.912 207.032 205.259 207.032ZM260.564 224.504C260.564 225.784 260.478 226.936 260.308 227.96H234.388C234.601 230.52 235.497 232.525 237.076 233.976C238.654 235.427 240.596 236.152 242.9 236.152C246.228 236.152 248.596 234.723 250.004 231.864H259.668C258.644 235.277 256.681 238.093 253.78 240.312C250.878 242.488 247.316 243.576 243.092 243.576C239.678 243.576 236.606 242.829 233.876 241.336C231.188 239.8 229.076 237.645 227.54 234.872C226.046 232.099 225.299 228.899 225.299 225.272C225.299 221.603 226.046 218.381 227.54 215.608C229.033 212.835 231.124 210.701 233.812 209.208C236.5 207.715 239.593 206.968 243.092 206.968C246.462 206.968 249.47 207.693 252.116 209.144C254.804 210.595 256.873 212.664 258.324 215.352C259.817 217.997 260.564 221.048 260.564 224.504ZM251.284 221.944C251.241 219.64 250.409 217.805 248.788 216.44C247.166 215.032 245.182 214.328 242.836 214.328C240.617 214.328 238.74 215.011 237.204 216.376C235.71 217.699 234.793 219.555 234.452 221.944H251.284ZM276.064 213.048C277.216 211.171 278.709 209.699 280.544 208.632C282.421 207.565 284.554 207.032 286.944 207.032V216.44H284.576C281.76 216.44 279.626 217.101 278.176 218.424C276.768 219.747 276.064 222.051 276.064 225.336V243H267.104V207.544H276.064V213.048ZM325.939 224.504C325.939 225.784 325.853 226.936 325.683 227.96H299.763C299.976 230.52 300.872 232.525 302.451 233.976C304.029 235.427 305.971 236.152 308.275 236.152C311.603 236.152 313.971 234.723 315.379 231.864H325.043C324.019 235.277 322.056 238.093 319.155 240.312C316.253 242.488 312.691 243.576 308.467 243.576C305.053 243.576 301.981 242.829 299.251 241.336C296.563 239.8 294.451 237.645 292.915 234.872C291.421 232.099 290.674 228.899 290.674 225.272C290.674 221.603 291.421 218.381 292.915 215.608C294.408 212.835 296.499 210.701 299.187 209.208C301.875 207.715 304.968 206.968 308.467 206.968C311.837 206.968 314.845 207.693 317.491 209.144C320.179 210.595 322.248 212.664 323.699 215.352C325.192 217.997 325.939 221.048 325.939 224.504ZM316.659 221.944C316.616 219.64 315.784 217.805 314.163 216.44C312.541 215.032 310.557 214.328 308.211 214.328C305.992 214.328 304.115 215.011 302.579 216.376C301.085 217.699 300.168 219.555 299.827 221.944H316.659Z" fill="url(#paint0_linear_241_137)"/>
<defs>
<linearGradient id="paint0_linear_241_137" x1="19.5596" y1="26.9999" x2="686.697" y2="96.5009" gradientUnits="userSpaceOnUse">
<stop stop-color="#F58864"/>
<stop offset="0.3125" stop-color="#E27769"/>
<stop offset="0.614583" stop-color="#D20202"/>
<stop offset="0.890625" stop-color="#F58864"/>
</linearGradient>
</defs>
</svg>
