<svg width="28" height="28" viewBox="0 0 28 28" fill="none" xmlns="http://www.w3.org/2000/svg">
<path d="M23.531 4.436C20.906 1.8245 17.699 0.5 14 0.5C10.2665 0.5 7.0505 1.826 4.4405 4.4375C1.826 7.049 0.5 10.268 0.5 14C0.5 17.6975 1.8245 20.9045 4.436 23.531C7.0475 26.165 10.265 27.5 14 27.5C17.7005 27.5 20.9075 26.165 23.534 23.5355C26.1665 20.906 27.5 17.6975 27.5 14C27.5 10.268 26.165 7.049 23.531 4.436ZM21.413 21.4145C19.7075 23.123 17.759 24.0965 15.5 24.392V17H18.5V14H15.5V11.9C15.5 11.7817 15.5233 11.6645 15.5687 11.5552C15.614 11.4459 15.6804 11.3467 15.7641 11.2631C15.8479 11.1795 15.9473 11.1132 16.0566 11.0681C16.166 11.0229 16.2832 10.9998 16.4015 11H18.5V8H16.4045C15.2915 8 14.363 8.4095 13.619 9.233C12.875 10.0535 12.5 11.0555 12.5 12.245V14H9.5V17H12.5V24.395C10.217 24.1025 8.261 23.1275 6.5645 21.419C4.502 19.343 3.5 16.916 3.5 14C3.5 11.051 4.5005 8.618 6.563 6.56C8.618 4.5005 11.051 3.5 14 3.5C16.9175 3.5 19.343 4.502 21.4175 6.5645C23.492 8.6225 24.5 11.0555 24.5 14C24.5 16.9115 23.4905 19.3385 21.413 21.4145Z" fill="white"/>
</svg>
