<svg width="217" height="358" viewBox="0 0 217 358" fill="none" xmlns="http://www.w3.org/2000/svg">
<path d="M9.332 1.836C12.116 1.836 14.504 2.34 16.496 3.348C18.488 4.356 20.012 5.808 21.068 7.704C22.124 9.6 22.652 11.856 22.652 14.472C22.652 17.064 22.124 19.308 21.068 21.204C20.012 23.076 18.488 24.516 16.496 25.524C14.504 26.508 12.116 27 9.332 27H1.88V1.836H9.332ZM9.332 24.912C12.836 24.912 15.5 24 17.324 22.176C19.172 20.328 20.096 17.76 20.096 14.472C20.096 11.16 19.172 8.58 17.324 6.732C15.5 4.86 12.836 3.924 9.332 3.924H4.4V24.912H9.332ZM35.902 27.288C34.054 27.288 32.386 26.88 30.898 26.064C29.434 25.224 28.27 24.048 27.406 22.536C26.566 21 26.146 19.212 26.146 17.172C26.146 15.132 26.578 13.356 27.442 11.844C28.306 10.308 29.482 9.132 30.97 8.316C32.458 7.476 34.126 7.056 35.974 7.056C37.822 7.056 39.49 7.476 40.978 8.316C42.49 9.132 43.666 10.308 44.506 11.844C45.37 13.356 45.802 15.132 45.802 17.172C45.802 19.188 45.37 20.964 44.506 22.5C43.642 24.036 42.454 25.224 40.942 26.064C39.43 26.88 37.75 27.288 35.902 27.288ZM35.902 25.092C37.198 25.092 38.398 24.804 39.502 24.228C40.606 23.628 41.494 22.74 42.166 21.564C42.862 20.364 43.21 18.9 43.21 17.172C43.21 15.444 42.874 13.992 42.202 12.816C41.53 11.616 40.642 10.728 39.538 10.152C38.434 9.552 37.234 9.252 35.938 9.252C34.642 9.252 33.442 9.552 32.338 10.152C31.234 10.728 30.346 11.616 29.674 12.816C29.026 13.992 28.702 15.444 28.702 17.172C28.702 18.9 29.026 20.364 29.674 21.564C30.346 22.74 31.222 23.628 32.302 24.228C33.406 24.804 34.606 25.092 35.902 25.092ZM76.3156 7.344L70.1596 27H67.6396L62.2036 10.512L56.7676 27H54.2116L48.0556 7.344H50.6116L55.5076 24.444L61.0156 7.344H63.5356L68.9716 24.48L73.8316 7.344H76.3156ZM88.9671 6.984C91.3191 6.984 93.2391 7.716 94.7271 9.18C96.2151 10.62 96.9591 12.72 96.9591 15.48V27H94.4751V15.768C94.4751 13.632 93.9351 12 92.8551 10.872C91.7991 9.744 90.3471 9.18 88.4991 9.18C86.6031 9.18 85.0911 9.78 83.9631 10.98C82.8351 12.18 82.2711 13.944 82.2711 16.272V27H79.7511V7.344H82.2711V10.692C82.8951 9.492 83.7951 8.58 84.9711 7.956C86.1471 7.308 87.4791 6.984 88.9671 6.984ZM105.052 0.36V27H102.532V0.36H105.052ZM119.363 27.288C117.515 27.288 115.847 26.88 114.359 26.064C112.895 25.224 111.731 24.048 110.867 22.536C110.027 21 109.607 19.212 109.607 17.172C109.607 15.132 110.039 13.356 110.903 11.844C111.767 10.308 112.943 9.132 114.431 8.316C115.919 7.476 117.587 7.056 119.435 7.056C121.283 7.056 122.951 7.476 124.439 8.316C125.951 9.132 127.127 10.308 127.967 11.844C128.831 13.356 129.263 15.132 129.263 17.172C129.263 19.188 128.831 20.964 127.967 22.5C127.103 24.036 125.915 25.224 124.403 26.064C122.891 26.88 121.211 27.288 119.363 27.288ZM119.363 25.092C120.659 25.092 121.859 24.804 122.963 24.228C124.067 23.628 124.955 22.74 125.627 21.564C126.323 20.364 126.671 18.9 126.671 17.172C126.671 15.444 126.335 13.992 125.663 12.816C124.991 11.616 124.103 10.728 122.999 10.152C121.895 9.552 120.695 9.252 119.399 9.252C118.103 9.252 116.903 9.552 115.799 10.152C114.695 10.728 113.807 11.616 113.135 12.816C112.487 13.992 112.163 15.444 112.163 17.172C112.163 18.9 112.487 20.364 113.135 21.564C113.807 22.74 114.683 23.628 115.763 24.228C116.867 24.804 118.067 25.092 119.363 25.092ZM132.705 17.136C132.705 15.12 133.101 13.356 133.893 11.844C134.709 10.308 135.825 9.132 137.241 8.316C138.681 7.476 140.301 7.056 142.101 7.056C143.973 7.056 145.581 7.488 146.925 8.352C148.293 9.216 149.277 10.32 149.877 11.664V7.344H152.397V27H149.877V22.644C149.253 23.988 148.257 25.104 146.889 25.992C145.545 26.856 143.937 27.288 142.065 27.288C140.289 27.288 138.681 26.868 137.241 26.028C135.825 25.188 134.709 24 133.893 22.464C133.101 20.928 132.705 19.152 132.705 17.136ZM149.877 17.172C149.877 15.588 149.553 14.196 148.905 12.996C148.257 11.796 147.369 10.872 146.241 10.224C145.137 9.576 143.913 9.252 142.569 9.252C141.177 9.252 139.929 9.564 138.825 10.188C137.721 10.812 136.845 11.724 136.197 12.924C135.573 14.1 135.261 15.504 135.261 17.136C135.261 18.744 135.573 20.16 136.197 21.384C136.845 22.584 137.721 23.508 138.825 24.156C139.929 24.78 141.177 25.092 142.569 25.092C143.913 25.092 145.137 24.768 146.241 24.12C147.369 23.472 148.257 22.548 148.905 21.348C149.553 20.148 149.877 18.756 149.877 17.172ZM156.998 17.136C156.998 15.12 157.406 13.356 158.222 11.844C159.038 10.308 160.154 9.132 161.57 8.316C163.01 7.476 164.63 7.056 166.43 7.056C168.158 7.056 169.718 7.476 171.11 8.316C172.502 9.156 173.522 10.248 174.17 11.592V0.36H176.69V27H174.17V22.608C173.57 23.976 172.586 25.104 171.218 25.992C169.85 26.856 168.242 27.288 166.394 27.288C164.594 27.288 162.974 26.868 161.534 26.028C160.118 25.188 159.002 24 158.186 22.464C157.394 20.928 156.998 19.152 156.998 17.136ZM174.17 17.172C174.17 15.588 173.846 14.196 173.198 12.996C172.55 11.796 171.662 10.872 170.534 10.224C169.43 9.576 168.206 9.252 166.862 9.252C165.47 9.252 164.222 9.564 163.118 10.188C162.014 10.812 161.138 11.724 160.49 12.924C159.866 14.1 159.554 15.504 159.554 17.136C159.554 18.744 159.866 20.16 160.49 21.384C161.138 22.584 162.014 23.508 163.118 24.156C164.222 24.78 165.47 25.092 166.862 25.092C168.206 25.092 169.43 24.768 170.534 24.12C171.662 23.472 172.55 22.548 173.198 21.348C173.846 20.148 174.17 18.756 174.17 17.172ZM16.604 56.836V58.924H9.62V82H7.1V58.924H0.08V56.836H16.604ZM29.9431 61.984C31.4311 61.984 32.7631 62.296 33.9391 62.92C35.1391 63.544 36.0751 64.504 36.7471 65.8C37.4431 67.072 37.7911 68.632 37.7911 70.48V82H35.3071V70.768C35.3071 68.632 34.7671 67 33.6871 65.872C32.6311 64.744 31.1791 64.18 29.3311 64.18C27.4351 64.18 25.9231 64.78 24.7951 65.98C23.6671 67.18 23.1031 68.944 23.1031 71.272V82H20.5831V55.36H23.1031V65.692C23.7271 64.516 24.6391 63.604 25.8391 62.956C27.0631 62.308 28.4311 61.984 29.9431 61.984ZM61.1484 71.164C61.1484 72.028 61.1244 72.688 61.0764 73.144H44.7684C44.8404 74.632 45.2004 75.904 45.8484 76.96C46.4964 78.016 47.3484 78.82 48.4044 79.372C49.4604 79.9 50.6124 80.164 51.8604 80.164C53.4924 80.164 54.8604 79.768 55.9644 78.976C57.0924 78.184 57.8364 77.116 58.1964 75.772H60.8604C60.3804 77.692 59.3484 79.264 57.7644 80.488C56.2044 81.688 54.2364 82.288 51.8604 82.288C50.0124 82.288 48.3564 81.88 46.8924 81.064C45.4284 80.224 44.2764 79.048 43.4364 77.536C42.6204 76 42.2124 74.212 42.2124 72.172C42.2124 70.132 42.6204 68.344 43.4364 66.808C44.2524 65.272 45.3924 64.096 46.8564 63.28C48.3204 62.464 49.9884 62.056 51.8604 62.056C53.7324 62.056 55.3644 62.464 56.7564 63.28C58.1724 64.096 59.2524 65.2 59.9964 66.592C60.7644 67.96 61.1484 69.484 61.1484 71.164ZM58.5924 71.092C58.6164 69.628 58.3164 68.38 57.6924 67.348C57.0924 66.316 56.2644 65.536 55.2084 65.008C54.1524 64.48 53.0004 64.216 51.7524 64.216C49.8804 64.216 48.2844 64.816 46.9644 66.016C45.6444 67.216 44.9124 68.908 44.7684 71.092H58.5924ZM91.7298 64.072C91.7298 66.232 91.0218 67.972 89.6058 69.292C88.1898 70.612 86.0658 71.272 83.2338 71.272H78.1578V82H75.6378V56.836H83.2338C86.0418 56.836 88.1538 57.496 89.5698 58.816C91.0098 60.136 91.7298 61.888 91.7298 64.072ZM83.2338 69.112C87.1698 69.112 89.1378 67.432 89.1378 64.072C89.1378 62.392 88.6698 61.12 87.7338 60.256C86.7978 59.392 85.2978 58.96 83.2338 58.96H78.1578V69.112H83.2338ZM98.4781 65.836C99.0301 64.612 99.8701 63.664 100.998 62.992C102.15 62.32 103.554 61.984 105.21 61.984V64.612H104.526C102.702 64.612 101.238 65.104 100.134 66.088C99.0301 67.072 98.4781 68.716 98.4781 71.02V82H95.9581V62.344H98.4781V65.836ZM117.605 82.288C115.757 82.288 114.089 81.88 112.601 81.064C111.137 80.224 109.973 79.048 109.109 77.536C108.269 76 107.849 74.212 107.849 72.172C107.849 70.132 108.281 68.356 109.145 66.844C110.009 65.308 111.185 64.132 112.673 63.316C114.161 62.476 115.829 62.056 117.677 62.056C119.525 62.056 121.193 62.476 122.681 63.316C124.193 64.132 125.369 65.308 126.209 66.844C127.073 68.356 127.505 70.132 127.505 72.172C127.505 74.188 127.073 75.964 126.209 77.5C125.345 79.036 124.157 80.224 122.645 81.064C121.133 81.88 119.453 82.288 117.605 82.288ZM117.605 80.092C118.901 80.092 120.101 79.804 121.205 79.228C122.309 78.628 123.197 77.74 123.869 76.564C124.565 75.364 124.913 73.9 124.913 72.172C124.913 70.444 124.577 68.992 123.905 67.816C123.233 66.616 122.345 65.728 121.241 65.152C120.137 64.552 118.937 64.252 117.641 64.252C116.345 64.252 115.145 64.552 114.041 65.152C112.937 65.728 112.049 66.616 111.377 67.816C110.729 68.992 110.405 70.444 110.405 72.172C110.405 73.9 110.729 75.364 111.377 76.564C112.049 77.74 112.925 78.628 114.005 79.228C115.109 79.804 116.309 80.092 117.605 80.092ZM142.395 82L137.319 74.08L132.423 82H129.759L136.095 72.172L129.831 62.344H132.675L137.679 70.156L142.539 62.344H145.167L138.903 72.064L145.239 82H142.395ZM149.917 58.636C149.413 58.636 148.981 58.456 148.621 58.096C148.261 57.736 148.081 57.292 148.081 56.764C148.081 56.236 148.261 55.804 148.621 55.468C148.981 55.108 149.413 54.928 149.917 54.928C150.421 54.928 150.853 55.108 151.213 55.468C151.573 55.804 151.753 56.236 151.753 56.764C151.753 57.292 151.573 57.736 151.213 58.096C150.853 58.456 150.421 58.636 149.917 58.636ZM151.177 62.344V82H148.657V62.344H151.177ZM174.668 71.164C174.668 72.028 174.644 72.688 174.596 73.144H158.288C158.36 74.632 158.72 75.904 159.368 76.96C160.016 78.016 160.868 78.82 161.924 79.372C162.98 79.9 164.132 80.164 165.38 80.164C167.012 80.164 168.38 79.768 169.484 78.976C170.612 78.184 171.356 77.116 171.716 75.772H174.38C173.9 77.692 172.868 79.264 171.284 80.488C169.724 81.688 167.756 82.288 165.38 82.288C163.532 82.288 161.876 81.88 160.412 81.064C158.948 80.224 157.796 79.048 156.956 77.536C156.14 76 155.732 74.212 155.732 72.172C155.732 70.132 156.14 68.344 156.956 66.808C157.772 65.272 158.912 64.096 160.376 63.28C161.84 62.464 163.508 62.056 165.38 62.056C167.252 62.056 168.884 62.464 170.276 63.28C171.692 64.096 172.772 65.2 173.516 66.592C174.284 67.96 174.668 69.484 174.668 71.164ZM172.112 71.092C172.136 69.628 171.836 68.38 171.212 67.348C170.612 66.316 169.784 65.536 168.728 65.008C167.672 64.48 166.52 64.216 165.272 64.216C163.4 64.216 161.804 64.816 160.484 66.016C159.164 67.216 158.432 68.908 158.288 71.092H172.112ZM26.468 112.16V137H23.948V117.164L15.092 137H13.256L4.4 117.236V137H1.88V112.16H4.544L14.156 133.688L23.768 112.16H26.468ZM40.7887 137.288C38.9407 137.288 37.2727 136.88 35.7847 136.064C34.3207 135.224 33.1567 134.048 32.2927 132.536C31.4527 131 31.0327 129.212 31.0327 127.172C31.0327 125.132 31.4647 123.356 32.3287 121.844C33.1927 120.308 34.3687 119.132 35.8567 118.316C37.3447 117.476 39.0127 117.056 40.8607 117.056C42.7087 117.056 44.3767 117.476 45.8647 118.316C47.3767 119.132 48.5527 120.308 49.3927 121.844C50.2567 123.356 50.6887 125.132 50.6887 127.172C50.6887 129.188 50.2567 130.964 49.3927 132.5C48.5287 134.036 47.3407 135.224 45.8287 136.064C44.3167 136.88 42.6367 137.288 40.7887 137.288ZM40.7887 135.092C42.0847 135.092 43.2847 134.804 44.3887 134.228C45.4927 133.628 46.3807 132.74 47.0527 131.564C47.7487 130.364 48.0967 128.9 48.0967 127.172C48.0967 125.444 47.7607 123.992 47.0887 122.816C46.4167 121.616 45.5287 120.728 44.4247 120.152C43.3207 119.552 42.1207 119.252 40.8247 119.252C39.5287 119.252 38.3287 119.552 37.2247 120.152C36.1207 120.728 35.2327 121.616 34.5607 122.816C33.9127 123.992 33.5887 125.444 33.5887 127.172C33.5887 128.9 33.9127 130.364 34.5607 131.564C35.2327 132.74 36.1087 133.628 37.1887 134.228C38.2927 134.804 39.4927 135.092 40.7887 135.092ZM57.7663 121.7C58.4143 120.332 59.4103 119.216 60.7543 118.352C62.1223 117.488 63.7303 117.056 65.5783 117.056C67.3783 117.056 68.9863 117.476 70.4023 118.316C71.8183 119.132 72.9223 120.308 73.7143 121.844C74.5303 123.356 74.9383 125.12 74.9383 127.136C74.9383 129.152 74.5303 130.928 73.7143 132.464C72.9223 134 71.8063 135.188 70.3663 136.028C68.9503 136.868 67.3543 137.288 65.5783 137.288C63.7063 137.288 62.0863 136.868 60.7183 136.028C59.3743 135.164 58.3903 134.048 57.7663 132.68V137H55.2823V110.36H57.7663V121.7ZM72.3823 127.136C72.3823 125.504 72.0583 124.1 71.4103 122.924C70.7863 121.724 69.9223 120.812 68.8183 120.188C67.7143 119.564 66.4663 119.252 65.0743 119.252C63.7303 119.252 62.4943 119.576 61.3663 120.224C60.2623 120.872 59.3863 121.796 58.7383 122.996C58.0903 124.196 57.7663 125.588 57.7663 127.172C57.7663 128.756 58.0903 130.148 58.7383 131.348C59.3863 132.548 60.2623 133.472 61.3663 134.12C62.4943 134.768 63.7303 135.092 65.0743 135.092C66.4663 135.092 67.7143 134.78 68.8183 134.156C69.9223 133.508 70.7863 132.584 71.4103 131.384C72.0583 130.16 72.3823 128.744 72.3823 127.136ZM80.8353 113.636C80.3313 113.636 79.8993 113.456 79.5393 113.096C79.1793 112.736 78.9993 112.292 78.9993 111.764C78.9993 111.236 79.1793 110.804 79.5393 110.468C79.8993 110.108 80.3313 109.928 80.8353 109.928C81.3393 109.928 81.7713 110.108 82.1313 110.468C82.4913 110.804 82.6713 111.236 82.6713 111.764C82.6713 112.292 82.4913 112.736 82.1313 113.096C81.7713 113.456 81.3393 113.636 80.8353 113.636ZM82.0953 117.344V137H79.5753V117.344H82.0953ZM90.3219 110.36V137H87.8019V110.36H90.3219ZM113.812 126.164C113.812 127.028 113.788 127.688 113.74 128.144H97.4324C97.5044 129.632 97.8644 130.904 98.5124 131.96C99.1604 133.016 100.012 133.82 101.068 134.372C102.124 134.9 103.276 135.164 104.524 135.164C106.156 135.164 107.524 134.768 108.628 133.976C109.756 133.184 110.5 132.116 110.86 130.772H113.524C113.044 132.692 112.012 134.264 110.428 135.488C108.868 136.688 106.9 137.288 104.524 137.288C102.676 137.288 101.02 136.88 99.5564 136.064C98.0924 135.224 96.9404 134.048 96.1004 132.536C95.2844 131 94.8764 129.212 94.8764 127.172C94.8764 125.132 95.2844 123.344 96.1004 121.808C96.9164 120.272 98.0564 119.096 99.5204 118.28C100.984 117.464 102.652 117.056 104.524 117.056C106.396 117.056 108.028 117.464 109.42 118.28C110.836 119.096 111.916 120.2 112.66 121.592C113.428 122.96 113.812 124.484 113.812 126.164ZM111.256 126.092C111.28 124.628 110.98 123.38 110.356 122.348C109.756 121.316 108.928 120.536 107.872 120.008C106.816 119.48 105.664 119.216 104.416 119.216C102.544 119.216 100.948 119.816 99.6284 121.016C98.3084 122.216 97.5764 123.908 97.4324 126.092H111.256ZM142.882 131.024H131.434L129.238 137H126.574L135.754 112.16H138.598L147.742 137H145.078L142.882 131.024ZM142.126 128.936L137.158 115.328L132.19 128.936H142.126ZM154.27 121.664C154.894 120.344 155.878 119.252 157.222 118.388C158.59 117.5 160.21 117.056 162.082 117.056C163.858 117.056 165.454 117.476 166.87 118.316C168.31 119.132 169.426 120.308 170.218 121.844C171.034 123.356 171.442 125.12 171.442 127.136C171.442 129.152 171.034 130.928 170.218 132.464C169.426 134 168.31 135.188 166.87 136.028C165.454 136.868 163.858 137.288 162.082 137.288C160.234 137.288 158.626 136.856 157.258 135.992C155.89 135.104 154.894 134 154.27 132.68V146.288H151.786V117.344H154.27V121.664ZM168.886 127.136C168.886 125.504 168.562 124.1 167.914 122.924C167.29 121.724 166.426 120.812 165.322 120.188C164.218 119.564 162.97 119.252 161.578 119.252C160.234 119.252 158.998 119.576 157.87 120.224C156.766 120.872 155.89 121.796 155.242 122.996C154.594 124.196 154.27 125.588 154.27 127.172C154.27 128.756 154.594 130.148 155.242 131.348C155.89 132.548 156.766 133.472 157.87 134.12C158.998 134.768 160.234 135.092 161.578 135.092C162.97 135.092 164.218 134.78 165.322 134.156C166.426 133.508 167.29 132.584 167.914 131.384C168.562 130.16 168.886 128.744 168.886 127.136ZM178.563 121.664C179.187 120.344 180.171 119.252 181.515 118.388C182.883 117.5 184.503 117.056 186.375 117.056C188.151 117.056 189.747 117.476 191.163 118.316C192.603 119.132 193.719 120.308 194.511 121.844C195.327 123.356 195.735 125.12 195.735 127.136C195.735 129.152 195.327 130.928 194.511 132.464C193.719 134 192.603 135.188 191.163 136.028C189.747 136.868 188.151 137.288 186.375 137.288C184.527 137.288 182.919 136.856 181.551 135.992C180.183 135.104 179.187 134 178.563 132.68V146.288H176.079V117.344H178.563V121.664ZM193.179 127.136C193.179 125.504 192.855 124.1 192.207 122.924C191.583 121.724 190.719 120.812 189.615 120.188C188.511 119.564 187.263 119.252 185.871 119.252C184.527 119.252 183.291 119.576 182.163 120.224C181.059 120.872 180.183 121.796 179.535 122.996C178.887 124.196 178.563 125.588 178.563 127.172C178.563 128.756 178.887 130.148 179.535 131.348C180.183 132.548 181.059 133.472 182.163 134.12C183.291 134.768 184.527 135.092 185.871 135.092C187.263 135.092 188.511 134.78 189.615 134.156C190.719 133.508 191.583 132.584 192.207 131.384C192.855 130.16 193.179 128.744 193.179 127.136Z" fill="#B4ADAD"/>
<path d="M17.216 166.908V169.572H10.376V192H7.1V169.572H0.224V166.908H17.216ZM29.8526 192.324C28.0046 192.324 26.3246 191.904 24.8126 191.064C23.3246 190.224 22.1486 189.036 21.2846 187.5C20.4446 185.94 20.0246 184.14 20.0246 182.1C20.0246 180.084 20.4566 178.308 21.3206 176.772C22.2086 175.212 23.4086 174.024 24.9206 173.208C26.4326 172.368 28.1246 171.948 29.9966 171.948C31.8686 171.948 33.5606 172.368 35.0726 173.208C36.5846 174.024 37.7726 175.2 38.6366 176.736C39.5246 178.272 39.9686 180.06 39.9686 182.1C39.9686 184.14 39.5126 185.94 38.6006 187.5C37.7126 189.036 36.5006 190.224 34.9646 191.064C33.4286 191.904 31.7246 192.324 29.8526 192.324ZM29.8526 189.444C31.0286 189.444 32.1326 189.168 33.1646 188.616C34.1966 188.064 35.0246 187.236 35.6486 186.132C36.2966 185.028 36.6206 183.684 36.6206 182.1C36.6206 180.516 36.3086 179.172 35.6846 178.068C35.0606 176.964 34.2446 176.148 33.2366 175.62C32.2286 175.068 31.1366 174.792 29.9606 174.792C28.7606 174.792 27.6566 175.068 26.6486 175.62C25.6646 176.148 24.8726 176.964 24.2726 178.068C23.6726 179.172 23.3726 180.516 23.3726 182.1C23.3726 183.708 23.6606 185.064 24.2366 186.168C24.8366 187.272 25.6286 188.1 26.6126 188.652C27.5966 189.18 28.6766 189.444 29.8526 189.444ZM73.2056 166.908V192H69.9296V180.624H57.1496V192H53.8736V166.908H57.1496V177.924H69.9296V166.908H73.2056ZM77.5753 182.064C77.5753 180.048 77.9833 178.284 78.7993 176.772C79.6153 175.236 80.7313 174.048 82.1473 173.208C83.5873 172.368 85.1833 171.948 86.9353 171.948C88.6633 171.948 90.1633 172.32 91.4353 173.064C92.7073 173.808 93.6553 174.744 94.2793 175.872V172.272H97.5913V192H94.2793V188.328C93.6313 189.48 92.6593 190.44 91.3633 191.208C90.0913 191.952 88.6033 192.324 86.8993 192.324C85.1473 192.324 83.5633 191.892 82.1473 191.028C80.7313 190.164 79.6153 188.952 78.7993 187.392C77.9833 185.832 77.5753 184.056 77.5753 182.064ZM94.2793 182.1C94.2793 180.612 93.9793 179.316 93.3793 178.212C92.7793 177.108 91.9633 176.268 90.9313 175.692C89.9233 175.092 88.8073 174.792 87.5833 174.792C86.3593 174.792 85.2433 175.08 84.2353 175.656C83.2273 176.232 82.4233 177.072 81.8233 178.176C81.2233 179.28 80.9233 180.576 80.9233 182.064C80.9233 183.576 81.2233 184.896 81.8233 186.024C82.4233 187.128 83.2273 187.98 84.2353 188.58C85.2433 189.156 86.3593 189.444 87.5833 189.444C88.8073 189.444 89.9233 189.156 90.9313 188.58C91.9633 187.98 92.7793 187.128 93.3793 186.024C93.9793 184.896 94.2793 183.588 94.2793 182.1ZM110.471 188.976L116.591 172.272H120.083L112.343 192H108.527L100.787 172.272H104.315L110.471 188.976ZM141.307 181.38C141.307 182.004 141.271 182.664 141.199 183.36H125.431C125.551 185.304 126.211 186.828 127.411 187.932C128.635 189.012 130.111 189.552 131.839 189.552C133.255 189.552 134.431 189.228 135.367 188.58C136.327 187.908 136.999 187.02 137.383 185.916H140.911C140.383 187.812 139.327 189.36 137.743 190.56C136.159 191.736 134.191 192.324 131.839 192.324C129.967 192.324 128.287 191.904 126.799 191.064C125.335 190.224 124.183 189.036 123.343 187.5C122.503 185.94 122.083 184.14 122.083 182.1C122.083 180.06 122.491 178.272 123.307 176.736C124.123 175.2 125.263 174.024 126.727 173.208C128.215 172.368 129.919 171.948 131.839 171.948C133.711 171.948 135.367 172.356 136.807 173.172C138.247 173.988 139.351 175.116 140.119 176.556C140.911 177.972 141.307 179.58 141.307 181.38ZM137.923 180.696C137.923 179.448 137.647 178.38 137.095 177.492C136.543 176.58 135.787 175.896 134.827 175.44C133.891 174.96 132.847 174.72 131.695 174.72C130.039 174.72 128.623 175.248 127.447 176.304C126.295 177.36 125.635 178.824 125.467 180.696H137.923ZM170.061 186.42H159.117L157.101 192H153.645L162.717 167.052H166.497L175.533 192H172.077L170.061 186.42ZM169.125 183.756L164.589 171.084L160.053 183.756H169.125ZM189.099 171.912C191.499 171.912 193.443 172.644 194.931 174.108C196.419 175.548 197.163 177.636 197.163 180.372V192H193.923V180.84C193.923 178.872 193.431 177.372 192.447 176.34C191.463 175.284 190.119 174.756 188.415 174.756C186.687 174.756 185.307 175.296 184.275 176.376C183.267 177.456 182.763 179.028 182.763 181.092V192H179.487V172.272H182.763V175.08C183.411 174.072 184.287 173.292 185.391 172.74C186.519 172.188 187.755 171.912 189.099 171.912ZM5.048 224.572V232.96H14.192V235.66H5.048V244.3H15.272V247H1.772V221.872H15.272V224.572H5.048ZM19.005 237.064C19.005 235.048 19.413 233.284 20.229 231.772C21.045 230.236 22.161 229.048 23.577 228.208C25.017 227.368 26.613 226.948 28.365 226.948C30.093 226.948 31.593 227.32 32.865 228.064C34.137 228.808 35.085 229.744 35.709 230.872V227.272H39.021V247H35.709V243.328C35.061 244.48 34.089 245.44 32.793 246.208C31.521 246.952 30.033 247.324 28.329 247.324C26.577 247.324 24.993 246.892 23.577 246.028C22.161 245.164 21.045 243.952 20.229 242.392C19.413 240.832 19.005 239.056 19.005 237.064ZM35.709 237.1C35.709 235.612 35.409 234.316 34.809 233.212C34.209 232.108 33.393 231.268 32.361 230.692C31.353 230.092 30.237 229.792 29.013 229.792C27.789 229.792 26.673 230.08 25.665 230.656C24.657 231.232 23.853 232.072 23.253 233.176C22.653 234.28 22.353 235.576 22.353 237.064C22.353 238.576 22.653 239.896 23.253 241.024C23.853 242.128 24.657 242.98 25.665 243.58C26.673 244.156 27.789 244.444 29.013 244.444C30.237 244.444 31.353 244.156 32.361 243.58C33.393 242.98 34.209 242.128 34.809 241.024C35.409 239.896 35.709 238.588 35.709 237.1ZM51.5412 247.324C50.0292 247.324 48.6732 247.072 47.4732 246.568C46.2732 246.04 45.3252 245.32 44.6292 244.408C43.9332 243.472 43.5492 242.404 43.4772 241.204H46.8612C46.9572 242.188 47.4132 242.992 48.2292 243.616C49.0692 244.24 50.1612 244.552 51.5052 244.552C52.7532 244.552 53.7372 244.276 54.4572 243.724C55.1772 243.172 55.5372 242.476 55.5372 241.636C55.5372 240.772 55.1532 240.136 54.3852 239.728C53.6172 239.296 52.4292 238.876 50.8212 238.468C49.3572 238.084 48.1572 237.7 47.2212 237.316C46.3092 236.908 45.5172 236.32 44.8452 235.552C44.1972 234.76 43.8732 233.728 43.8732 232.456C43.8732 231.448 44.1732 230.524 44.7732 229.684C45.3732 228.844 46.2252 228.184 47.3292 227.704C48.4332 227.2 49.6932 226.948 51.1092 226.948C53.2932 226.948 55.0572 227.5 56.4012 228.604C57.7452 229.708 58.4652 231.22 58.5612 233.14H55.2852C55.2132 232.108 54.7932 231.28 54.0252 230.656C53.2812 230.032 52.2732 229.72 51.0012 229.72C49.8252 229.72 48.8892 229.972 48.1932 230.476C47.4972 230.98 47.1492 231.64 47.1492 232.456C47.1492 233.104 47.3532 233.644 47.7612 234.076C48.1932 234.484 48.7212 234.82 49.3452 235.084C49.9932 235.324 50.8812 235.6 52.0092 235.912C53.4252 236.296 54.5772 236.68 55.4652 237.064C56.3532 237.424 57.1092 237.976 57.7332 238.72C58.3812 239.464 58.7172 240.436 58.7412 241.636C58.7412 242.716 58.4412 243.688 57.8412 244.552C57.2412 245.416 56.3892 246.1 55.2852 246.604C54.2052 247.084 52.9572 247.324 51.5412 247.324ZM80.3578 227.272L68.4778 256.288H65.0938L68.9818 246.784L61.0258 227.272H64.6618L70.8538 243.256L76.9738 227.272H80.3578ZM108.081 241.42H97.1366L95.1206 247H91.6646L100.737 222.052H104.517L113.553 247H110.097L108.081 241.42ZM107.145 238.756L102.609 226.084L98.0726 238.756H107.145ZM116.282 237.1C116.282 235.06 116.69 233.284 117.506 231.772C118.322 230.236 119.45 229.048 120.89 228.208C122.354 227.368 124.022 226.948 125.894 226.948C128.318 226.948 130.31 227.536 131.87 228.712C133.454 229.888 134.498 231.52 135.002 233.608H131.474C131.138 232.408 130.478 231.46 129.494 230.764C128.534 230.068 127.334 229.72 125.894 229.72C124.022 229.72 122.51 230.368 121.358 231.664C120.206 232.936 119.63 234.748 119.63 237.1C119.63 239.476 120.206 241.312 121.358 242.608C122.51 243.904 124.022 244.552 125.894 244.552C127.334 244.552 128.534 244.216 129.494 243.544C130.454 242.872 131.114 241.912 131.474 240.664H135.002C134.474 242.68 133.418 244.3 131.834 245.524C130.25 246.724 128.27 247.324 125.894 247.324C124.022 247.324 122.354 246.904 120.89 246.064C119.45 245.224 118.322 244.036 117.506 242.5C116.69 240.964 116.282 239.164 116.282 237.1ZM138.15 237.1C138.15 235.06 138.558 233.284 139.374 231.772C140.19 230.236 141.318 229.048 142.758 228.208C144.222 227.368 145.89 226.948 147.762 226.948C150.186 226.948 152.178 227.536 153.738 228.712C155.322 229.888 156.366 231.52 156.87 233.608H153.342C153.006 232.408 152.346 231.46 151.362 230.764C150.402 230.068 149.202 229.72 147.762 229.72C145.89 229.72 144.378 230.368 143.226 231.664C142.074 232.936 141.498 234.748 141.498 237.1C141.498 239.476 142.074 241.312 143.226 242.608C144.378 243.904 145.89 244.552 147.762 244.552C149.202 244.552 150.402 244.216 151.362 243.544C152.322 242.872 152.982 241.912 153.342 240.664H156.87C156.342 242.68 155.286 244.3 153.702 245.524C152.118 246.724 150.138 247.324 147.762 247.324C145.89 247.324 144.222 246.904 142.758 246.064C141.318 245.224 140.19 244.036 139.374 242.5C138.558 240.964 138.15 239.164 138.15 237.1ZM179.241 236.38C179.241 237.004 179.205 237.664 179.133 238.36H163.365C163.485 240.304 164.145 241.828 165.345 242.932C166.569 244.012 168.045 244.552 169.773 244.552C171.189 244.552 172.365 244.228 173.301 243.58C174.261 242.908 174.933 242.02 175.317 240.916H178.845C178.317 242.812 177.261 244.36 175.677 245.56C174.093 246.736 172.125 247.324 169.773 247.324C167.901 247.324 166.221 246.904 164.733 246.064C163.269 245.224 162.117 244.036 161.277 242.5C160.437 240.94 160.017 239.14 160.017 237.1C160.017 235.06 160.425 233.272 161.241 231.736C162.057 230.2 163.197 229.024 164.661 228.208C166.149 227.368 167.853 226.948 169.773 226.948C171.645 226.948 173.301 227.356 174.741 228.172C176.181 228.988 177.285 230.116 178.053 231.556C178.845 232.972 179.241 234.58 179.241 236.38ZM175.857 235.696C175.857 234.448 175.581 233.38 175.029 232.492C174.477 231.58 173.721 230.896 172.761 230.44C171.825 229.96 170.781 229.72 169.629 229.72C167.973 229.72 166.557 230.248 165.381 231.304C164.229 232.36 163.569 233.824 163.401 235.696H175.857ZM190.549 247.324C189.037 247.324 187.681 247.072 186.481 246.568C185.281 246.04 184.333 245.32 183.637 244.408C182.941 243.472 182.557 242.404 182.485 241.204H185.869C185.965 242.188 186.421 242.992 187.237 243.616C188.077 244.24 189.169 244.552 190.513 244.552C191.761 244.552 192.745 244.276 193.465 243.724C194.185 243.172 194.545 242.476 194.545 241.636C194.545 240.772 194.161 240.136 193.393 239.728C192.625 239.296 191.437 238.876 189.829 238.468C188.365 238.084 187.165 237.7 186.229 237.316C185.317 236.908 184.525 236.32 183.853 235.552C183.205 234.76 182.881 233.728 182.881 232.456C182.881 231.448 183.181 230.524 183.781 229.684C184.381 228.844 185.233 228.184 186.337 227.704C187.441 227.2 188.701 226.948 190.117 226.948C192.301 226.948 194.065 227.5 195.409 228.604C196.753 229.708 197.473 231.22 197.569 233.14H194.293C194.221 232.108 193.801 231.28 193.033 230.656C192.289 230.032 191.281 229.72 190.009 229.72C188.833 229.72 187.897 229.972 187.201 230.476C186.505 230.98 186.157 231.64 186.157 232.456C186.157 233.104 186.361 233.644 186.769 234.076C187.201 234.484 187.729 234.82 188.353 235.084C189.001 235.324 189.889 235.6 191.017 235.912C192.433 236.296 193.585 236.68 194.473 237.064C195.361 237.424 196.117 237.976 196.741 238.72C197.389 239.464 197.725 240.436 197.749 241.636C197.749 242.716 197.449 243.688 196.849 244.552C196.249 245.416 195.397 246.1 194.293 246.604C193.213 247.084 191.965 247.324 190.549 247.324ZM209.358 247.324C207.846 247.324 206.49 247.072 205.29 246.568C204.09 246.04 203.142 245.32 202.446 244.408C201.75 243.472 201.366 242.404 201.294 241.204H204.678C204.774 242.188 205.23 242.992 206.046 243.616C206.886 244.24 207.978 244.552 209.322 244.552C210.57 244.552 211.554 244.276 212.274 243.724C212.994 243.172 213.354 242.476 213.354 241.636C213.354 240.772 212.97 240.136 212.202 239.728C211.434 239.296 210.246 238.876 208.638 238.468C207.174 238.084 205.974 237.7 205.038 237.316C204.126 236.908 203.334 236.32 202.662 235.552C202.014 234.76 201.69 233.728 201.69 232.456C201.69 231.448 201.99 230.524 202.59 229.684C203.19 228.844 204.042 228.184 205.146 227.704C206.25 227.2 207.51 226.948 208.926 226.948C211.11 226.948 212.874 227.5 214.218 228.604C215.562 229.708 216.282 231.22 216.378 233.14H213.102C213.03 232.108 212.61 231.28 211.842 230.656C211.098 230.032 210.09 229.72 208.818 229.72C207.642 229.72 206.706 229.972 206.01 230.476C205.314 230.98 204.966 231.64 204.966 232.456C204.966 233.104 205.17 233.644 205.578 234.076C206.01 234.484 206.538 234.82 207.162 235.084C207.81 235.324 208.698 235.6 209.826 235.912C211.242 236.296 212.394 236.68 213.282 237.064C214.17 237.424 214.926 237.976 215.55 238.72C216.198 239.464 216.534 240.436 216.558 241.636C216.558 242.716 216.258 243.688 215.658 244.552C215.058 245.416 214.206 246.1 213.102 246.604C212.022 247.084 210.774 247.324 209.358 247.324ZM17.216 276.908V279.572H10.376V302H7.1V279.572H0.224V276.908H17.216ZM29.8526 302.324C28.0046 302.324 26.3246 301.904 24.8126 301.064C23.3246 300.224 22.1486 299.036 21.2846 297.5C20.4446 295.94 20.0246 294.14 20.0246 292.1C20.0246 290.084 20.4566 288.308 21.3206 286.772C22.2086 285.212 23.4086 284.024 24.9206 283.208C26.4326 282.368 28.1246 281.948 29.9966 281.948C31.8686 281.948 33.5606 282.368 35.0726 283.208C36.5846 284.024 37.7726 285.2 38.6366 286.736C39.5246 288.272 39.9686 290.06 39.9686 292.1C39.9686 294.14 39.5126 295.94 38.6006 297.5C37.7126 299.036 36.5006 300.224 34.9646 301.064C33.4286 301.904 31.7246 302.324 29.8526 302.324ZM29.8526 299.444C31.0286 299.444 32.1326 299.168 33.1646 298.616C34.1966 298.064 35.0246 297.236 35.6486 296.132C36.2966 295.028 36.6206 293.684 36.6206 292.1C36.6206 290.516 36.3086 289.172 35.6846 288.068C35.0606 286.964 34.2446 286.148 33.2366 285.62C32.2286 285.068 31.1366 284.792 29.9606 284.792C28.7606 284.792 27.6566 285.068 26.6486 285.62C25.6646 286.148 24.8726 286.964 24.2726 288.068C23.6726 289.172 23.3726 290.516 23.3726 292.1C23.3726 293.708 23.6606 295.064 24.2366 296.168C24.8366 297.272 25.6286 298.1 26.6126 298.652C27.5966 299.18 28.6766 299.444 29.8526 299.444ZM68.7056 296.42H57.7616L55.7456 302H52.2896L61.3616 277.052H65.1416L74.1776 302H70.7216L68.7056 296.42ZM67.7696 293.756L63.2336 281.084L58.6976 293.756H67.7696ZM81.4074 275.36V302H78.1314V275.36H81.4074ZM90.2668 275.36V302H86.9908V275.36H90.2668ZM123.016 276.908L114.844 292.532V302H111.568V292.532L103.36 276.908H106.996L113.188 289.616L119.38 276.908H123.016ZM135.075 302.324C133.227 302.324 131.547 301.904 130.035 301.064C128.547 300.224 127.371 299.036 126.507 297.5C125.667 295.94 125.247 294.14 125.247 292.1C125.247 290.084 125.679 288.308 126.543 286.772C127.431 285.212 128.631 284.024 130.143 283.208C131.655 282.368 133.347 281.948 135.219 281.948C137.091 281.948 138.783 282.368 140.295 283.208C141.807 284.024 142.995 285.2 143.859 286.736C144.747 288.272 145.191 290.06 145.191 292.1C145.191 294.14 144.735 295.94 143.823 297.5C142.935 299.036 141.723 300.224 140.187 301.064C138.651 301.904 136.947 302.324 135.075 302.324ZM135.075 299.444C136.251 299.444 137.355 299.168 138.387 298.616C139.419 298.064 140.247 297.236 140.871 296.132C141.519 295.028 141.843 293.684 141.843 292.1C141.843 290.516 141.531 289.172 140.907 288.068C140.283 286.964 139.467 286.148 138.459 285.62C137.451 285.068 136.359 284.792 135.183 284.792C133.983 284.792 132.879 285.068 131.871 285.62C130.887 286.148 130.095 286.964 129.495 288.068C128.895 289.172 128.595 290.516 128.595 292.1C128.595 293.708 128.883 295.064 129.459 296.168C130.059 297.272 130.851 298.1 131.835 298.652C132.819 299.18 133.899 299.444 135.075 299.444ZM166.995 282.272V302H163.719V299.084C163.095 300.092 162.219 300.884 161.091 301.46C159.987 302.012 158.763 302.288 157.419 302.288C155.883 302.288 154.503 301.976 153.279 301.352C152.055 300.704 151.083 299.744 150.363 298.472C149.667 297.2 149.319 295.652 149.319 293.828V282.272H152.559V293.396C152.559 295.34 153.051 296.84 154.035 297.896C155.019 298.928 156.363 299.444 158.067 299.444C159.819 299.444 161.199 298.904 162.207 297.824C163.215 296.744 163.719 295.172 163.719 293.108V282.272H166.995ZM175.802 285.476C176.378 284.348 177.194 283.472 178.25 282.848C179.33 282.224 180.638 281.912 182.174 281.912V285.296H181.31C177.638 285.296 175.802 287.288 175.802 291.272V302H172.526V282.272H175.802V285.476ZM9.584 331.908C12.32 331.908 14.684 332.424 16.676 333.456C18.692 334.464 20.228 335.916 21.284 337.812C22.364 339.708 22.904 341.94 22.904 344.508C22.904 347.076 22.364 349.308 21.284 351.204C20.228 353.076 18.692 354.516 16.676 355.524C14.684 356.508 12.32 357 9.584 357H1.772V331.908H9.584ZM9.584 354.3C12.824 354.3 15.296 353.448 17 351.744C18.704 350.016 19.556 347.604 19.556 344.508C19.556 341.388 18.692 338.952 16.964 337.2C15.26 335.448 12.8 334.572 9.584 334.572H5.048V354.3H9.584ZM45.2251 346.38C45.2251 347.004 45.1891 347.664 45.1171 348.36H29.3491C29.4691 350.304 30.1291 351.828 31.3291 352.932C32.5531 354.012 34.0291 354.552 35.7571 354.552C37.1731 354.552 38.3491 354.228 39.2851 353.58C40.2451 352.908 40.9171 352.02 41.3011 350.916H44.8291C44.3011 352.812 43.2451 354.36 41.6611 355.56C40.0771 356.736 38.1091 357.324 35.7571 357.324C33.8851 357.324 32.2051 356.904 30.7171 356.064C29.2531 355.224 28.1011 354.036 27.2611 352.5C26.4211 350.94 26.0011 349.14 26.0011 347.1C26.0011 345.06 26.4091 343.272 27.2251 341.736C28.0411 340.2 29.1811 339.024 30.6451 338.208C32.1331 337.368 33.8371 336.948 35.7571 336.948C37.6291 336.948 39.2851 337.356 40.7251 338.172C42.1651 338.988 43.2691 340.116 44.0371 341.556C44.8291 342.972 45.2251 344.58 45.2251 346.38ZM41.8411 345.696C41.8411 344.448 41.5651 343.38 41.0131 342.492C40.4611 341.58 39.7051 340.896 38.7451 340.44C37.8091 339.96 36.7651 339.72 35.6131 339.72C33.9571 339.72 32.5411 340.248 31.3651 341.304C30.2131 342.36 29.5531 343.824 29.3851 345.696H41.8411ZM56.8933 353.976L63.0133 337.272H66.5053L58.7653 357H54.9493L47.2093 337.272H50.7373L56.8933 353.976ZM71.421 334.068C70.797 334.068 70.269 333.852 69.837 333.42C69.405 332.988 69.189 332.46 69.189 331.836C69.189 331.212 69.405 330.684 69.837 330.252C70.269 329.82 70.797 329.604 71.421 329.604C72.021 329.604 72.525 329.82 72.933 330.252C73.365 330.684 73.581 331.212 73.581 331.836C73.581 332.46 73.365 332.988 72.933 333.42C72.525 333.852 72.021 334.068 71.421 334.068ZM73.005 337.272V357H69.729V337.272H73.005ZM77.3644 347.1C77.3644 345.06 77.7724 343.284 78.5884 341.772C79.4044 340.236 80.5324 339.048 81.9724 338.208C83.4364 337.368 85.1044 336.948 86.9764 336.948C89.4004 336.948 91.3924 337.536 92.9524 338.712C94.5364 339.888 95.5804 341.52 96.0844 343.608H92.5564C92.2204 342.408 91.5604 341.46 90.5764 340.764C89.6164 340.068 88.4164 339.72 86.9764 339.72C85.1044 339.72 83.5924 340.368 82.4404 341.664C81.2884 342.936 80.7124 344.748 80.7124 347.1C80.7124 349.476 81.2884 351.312 82.4404 352.608C83.5924 353.904 85.1044 354.552 86.9764 354.552C88.4164 354.552 89.6164 354.216 90.5764 353.544C91.5364 352.872 92.1964 351.912 92.5564 350.664H96.0844C95.5564 352.68 94.5004 354.3 92.9164 355.524C91.3324 356.724 89.3524 357.324 86.9764 357.324C85.1044 357.324 83.4364 356.904 81.9724 356.064C80.5324 355.224 79.4044 354.036 78.5884 352.5C77.7724 350.964 77.3644 349.164 77.3644 347.1ZM118.456 346.38C118.456 347.004 118.42 347.664 118.348 348.36H102.58C102.7 350.304 103.36 351.828 104.56 352.932C105.784 354.012 107.26 354.552 108.988 354.552C110.404 354.552 111.58 354.228 112.516 353.58C113.476 352.908 114.148 352.02 114.532 350.916H118.06C117.532 352.812 116.476 354.36 114.892 355.56C113.308 356.736 111.34 357.324 108.988 357.324C107.116 357.324 105.436 356.904 103.948 356.064C102.484 355.224 101.332 354.036 100.492 352.5C99.6516 350.94 99.2316 349.14 99.2316 347.1C99.2316 345.06 99.6396 343.272 100.456 341.736C101.272 340.2 102.412 339.024 103.876 338.208C105.364 337.368 107.068 336.948 108.988 336.948C110.86 336.948 112.516 337.356 113.956 338.172C115.396 338.988 116.5 340.116 117.268 341.556C118.06 342.972 118.456 344.58 118.456 346.38ZM115.072 345.696C115.072 344.448 114.796 343.38 114.244 342.492C113.692 341.58 112.936 340.896 111.976 340.44C111.04 339.96 109.996 339.72 108.844 339.72C107.188 339.72 105.772 340.248 104.596 341.304C103.444 342.36 102.784 343.824 102.616 345.696H115.072ZM129.764 357.324C128.252 357.324 126.896 357.072 125.696 356.568C124.496 356.04 123.548 355.32 122.852 354.408C122.156 353.472 121.772 352.404 121.7 351.204H125.084C125.18 352.188 125.636 352.992 126.452 353.616C127.292 354.24 128.384 354.552 129.728 354.552C130.976 354.552 131.96 354.276 132.68 353.724C133.4 353.172 133.76 352.476 133.76 351.636C133.76 350.772 133.376 350.136 132.608 349.728C131.84 349.296 130.652 348.876 129.044 348.468C127.58 348.084 126.38 347.7 125.444 347.316C124.532 346.908 123.74 346.32 123.068 345.552C122.42 344.76 122.096 343.728 122.096 342.456C122.096 341.448 122.396 340.524 122.996 339.684C123.596 338.844 124.448 338.184 125.552 337.704C126.656 337.2 127.916 336.948 129.332 336.948C131.516 336.948 133.28 337.5 134.624 338.604C135.968 339.708 136.688 341.22 136.784 343.14H133.508C133.436 342.108 133.016 341.28 132.248 340.656C131.504 340.032 130.496 339.72 129.224 339.72C128.048 339.72 127.112 339.972 126.416 340.476C125.72 340.98 125.372 341.64 125.372 342.456C125.372 343.104 125.576 343.644 125.984 344.076C126.416 344.484 126.944 344.82 127.568 345.084C128.216 345.324 129.104 345.6 130.232 345.912C131.648 346.296 132.8 346.68 133.688 347.064C134.576 347.424 135.332 347.976 135.956 348.72C136.604 349.464 136.94 350.436 136.964 351.636C136.964 352.716 136.664 353.688 136.064 354.552C135.464 355.416 134.612 356.1 133.508 356.604C132.428 357.084 131.18 357.324 129.764 357.324ZM152.23 357.216C151.606 357.216 151.078 357 150.646 356.568C150.214 356.136 149.998 355.608 149.998 354.984C149.998 354.36 150.214 353.832 150.646 353.4C151.078 352.968 151.606 352.752 152.23 352.752C152.83 352.752 153.334 352.968 153.742 353.4C154.174 353.832 154.39 354.36 154.39 354.984C154.39 355.608 154.174 356.136 153.742 356.568C153.334 357 152.83 357.216 152.23 357.216Z" fill="#FBC1C1"/>
</svg>
