<svg width="241" height="47" viewBox="0 0 241 47" fill="none" xmlns="http://www.w3.org/2000/svg">
<path d="M0.7 9C0.7 7.62667 1.00667 6.4 1.62 5.32C2.24667 4.22667 3.09333 3.38 4.16 2.78C5.24 2.16667 6.44667 1.86 7.78 1.86C9.34 1.86 10.7067 2.26 11.88 3.06C13.0533 3.86 13.8733 4.96667 14.34 6.38H11.12C10.8 5.71333 10.3467 5.21333 9.76 4.88C9.18667 4.54667 8.52 4.38 7.76 4.38C6.94667 4.38 6.22 4.57333 5.58 4.96C4.95333 5.33333 4.46 5.86667 4.1 6.56C3.75333 7.25333 3.58 8.06667 3.58 9C3.58 9.92 3.75333 10.7333 4.1 11.44C4.46 12.1333 4.95333 12.6733 5.58 13.06C6.22 13.4333 6.94667 13.62 7.76 13.62C8.52 13.62 9.18667 13.4533 9.76 13.12C10.3467 12.7733 10.8 12.2667 11.12 11.6H14.34C13.8733 13.0267 13.0533 14.14 11.88 14.94C10.72 15.7267 9.35333 16.12 7.78 16.12C6.44667 16.12 5.24 15.82 4.16 15.22C3.09333 14.6067 2.24667 13.76 1.62 12.68C1.00667 11.6 0.7 10.3733 0.7 9ZM21.6516 16.18C20.5849 16.18 19.6249 15.9467 18.7716 15.48C17.9182 15 17.2449 14.3267 16.7516 13.46C16.2716 12.5933 16.0316 11.5933 16.0316 10.46C16.0316 9.32667 16.2782 8.32667 16.7716 7.46C17.2782 6.59333 17.9649 5.92667 18.8316 5.46C19.6982 4.98 20.6649 4.74 21.7316 4.74C22.7982 4.74 23.7649 4.98 24.6316 5.46C25.4982 5.92667 26.1782 6.59333 26.6716 7.46C27.1782 8.32667 27.4316 9.32667 27.4316 10.46C27.4316 11.5933 27.1716 12.5933 26.6516 13.46C26.1449 14.3267 25.4516 15 24.5716 15.48C23.7049 15.9467 22.7316 16.18 21.6516 16.18ZM21.6516 13.74C22.1582 13.74 22.6316 13.62 23.0716 13.38C23.5249 13.1267 23.8849 12.7533 24.1516 12.26C24.4182 11.7667 24.5516 11.1667 24.5516 10.46C24.5516 9.40667 24.2716 8.6 23.7116 8.04C23.1649 7.46667 22.4916 7.18 21.6916 7.18C20.8916 7.18 20.2182 7.46667 19.6716 8.04C19.1382 8.6 18.8716 9.40667 18.8716 10.46C18.8716 11.5133 19.1316 12.3267 19.6516 12.9C20.1849 13.46 20.8516 13.74 21.6516 13.74ZM35.6255 4.76C36.9455 4.76 38.0121 5.18 38.8255 6.02C39.6388 6.84667 40.0455 8.00667 40.0455 9.5V16H37.2455V9.88C37.2455 9 37.0255 8.32667 36.5855 7.86C36.1455 7.38 35.5455 7.14 34.7855 7.14C34.0121 7.14 33.3988 7.38 32.9455 7.86C32.5055 8.32667 32.2855 9 32.2855 9.88V16H29.4855V4.92H32.2855V6.3C32.6588 5.82 33.1321 5.44667 33.7055 5.18C34.2921 4.9 34.9321 4.76 35.6255 4.76ZM45.9681 7.22V12.58C45.9681 12.9533 46.0548 13.2267 46.2281 13.4C46.4148 13.56 46.7215 13.64 47.1481 13.64H48.4481V16H46.6881C44.3281 16 43.1481 14.8533 43.1481 12.56V7.22H41.8281V4.92H43.1481V2.18H45.9681V4.92H48.4481V7.22H45.9681ZM53.262 6.64C53.622 6.05333 54.0887 5.59333 54.662 5.26C55.2487 4.92667 55.9154 4.76 56.662 4.76V7.7H55.922C55.042 7.7 54.3754 7.90667 53.922 8.32C53.482 8.73333 53.262 9.45333 53.262 10.48V16H50.462V4.92H53.262V6.64ZM63.468 16.18C62.4013 16.18 61.4413 15.9467 60.588 15.48C59.7346 15 59.0613 14.3267 58.568 13.46C58.088 12.5933 57.848 11.5933 57.848 10.46C57.848 9.32667 58.0946 8.32667 58.588 7.46C59.0946 6.59333 59.7813 5.92667 60.648 5.46C61.5146 4.98 62.4813 4.74 63.548 4.74C64.6146 4.74 65.5813 4.98 66.448 5.46C67.3146 5.92667 67.9946 6.59333 68.488 7.46C68.9946 8.32667 69.248 9.32667 69.248 10.46C69.248 11.5933 68.988 12.5933 68.468 13.46C67.9613 14.3267 67.268 15 66.388 15.48C65.5213 15.9467 64.548 16.18 63.468 16.18ZM63.468 13.74C63.9746 13.74 64.448 13.62 64.888 13.38C65.3413 13.1267 65.7013 12.7533 65.968 12.26C66.2346 11.7667 66.368 11.1667 66.368 10.46C66.368 9.40667 66.088 8.6 65.528 8.04C64.9813 7.46667 64.308 7.18 63.508 7.18C62.708 7.18 62.0346 7.46667 61.488 8.04C60.9546 8.6 60.688 9.40667 60.688 10.46C60.688 11.5133 60.948 12.3267 61.468 12.9C62.0013 13.46 62.668 13.74 63.468 13.74ZM74.1019 1.2V16H71.3019V1.2H74.1019ZM90.1939 13.34H84.6339L83.7139 16H80.7739L85.7939 2.02H89.0539L94.0739 16H91.1139L90.1939 13.34ZM89.4339 11.1L87.4139 5.26L85.3939 11.1H89.4339ZM98.7503 1.2V16H95.9503V1.2H98.7503ZM104.317 1.2V16H101.517V1.2H104.317ZM122.949 2.04L118.229 11.14V16H115.429V11.14L110.689 2.04H113.849L116.849 8.42L119.829 2.04H122.949ZM129.484 16.18C128.417 16.18 127.457 15.9467 126.604 15.48C125.75 15 125.077 14.3267 124.584 13.46C124.104 12.5933 123.864 11.5933 123.864 10.46C123.864 9.32667 124.11 8.32667 124.604 7.46C125.11 6.59333 125.797 5.92667 126.664 5.46C127.53 4.98 128.497 4.74 129.564 4.74C130.63 4.74 131.597 4.98 132.464 5.46C133.33 5.92667 134.01 6.59333 134.504 7.46C135.01 8.32667 135.264 9.32667 135.264 10.46C135.264 11.5933 135.004 12.5933 134.484 13.46C133.977 14.3267 133.284 15 132.404 15.48C131.537 15.9467 130.564 16.18 129.484 16.18ZM129.484 13.74C129.99 13.74 130.464 13.62 130.904 13.38C131.357 13.1267 131.717 12.7533 131.984 12.26C132.25 11.7667 132.384 11.1667 132.384 10.46C132.384 9.40667 132.104 8.6 131.544 8.04C130.997 7.46667 130.324 7.18 129.524 7.18C128.724 7.18 128.05 7.46667 127.504 8.04C126.97 8.6 126.704 9.40667 126.704 10.46C126.704 11.5133 126.964 12.3267 127.484 12.9C128.017 13.46 128.684 13.74 129.484 13.74ZM147.778 4.92V16H144.958V14.6C144.598 15.08 144.124 15.46 143.538 15.74C142.964 16.0067 142.338 16.14 141.658 16.14C140.791 16.14 140.024 15.96 139.358 15.6C138.691 15.2267 138.164 14.6867 137.778 13.98C137.404 13.26 137.218 12.4067 137.218 11.42V4.92H140.018V11.02C140.018 11.9 140.238 12.58 140.678 13.06C141.118 13.5267 141.718 13.76 142.478 13.76C143.251 13.76 143.858 13.5267 144.298 13.06C144.738 12.58 144.958 11.9 144.958 11.02V4.92H147.778ZM153.34 6.64C153.7 6.05333 154.167 5.59333 154.74 5.26C155.327 4.92667 155.993 4.76 156.74 4.76V7.7H156C155.12 7.7 154.453 7.90667 154 8.32C153.56 8.73333 153.34 9.45333 153.34 10.48V16H150.54V4.92H153.34V6.64ZM168.272 2.04C169.738 2.04 171.025 2.32667 172.132 2.9C173.252 3.47333 174.112 4.29333 174.712 5.36C175.325 6.41333 175.632 7.64 175.632 9.04C175.632 10.44 175.325 11.6667 174.712 12.72C174.112 13.76 173.252 14.5667 172.132 15.14C171.025 15.7133 169.738 16 168.272 16H163.392V2.04H168.272ZM168.172 13.62C169.638 13.62 170.772 13.22 171.572 12.42C172.372 11.62 172.772 10.4933 172.772 9.04C172.772 7.58667 172.372 6.45333 171.572 5.64C170.772 4.81333 169.638 4.4 168.172 4.4H166.192V13.62H168.172ZM188.028 10.22C188.028 10.62 188.001 10.98 187.948 11.3H179.848C179.914 12.1 180.194 12.7267 180.688 13.18C181.181 13.6333 181.788 13.86 182.508 13.86C183.548 13.86 184.288 13.4133 184.728 12.52H187.748C187.428 13.5867 186.814 14.4667 185.908 15.16C185.001 15.84 183.888 16.18 182.568 16.18C181.501 16.18 180.541 15.9467 179.688 15.48C178.848 15 178.188 14.3267 177.708 13.46C177.241 12.5933 177.008 11.5933 177.008 10.46C177.008 9.31333 177.241 8.30667 177.708 7.44C178.174 6.57333 178.828 5.90667 179.668 5.44C180.508 4.97333 181.474 4.74 182.568 4.74C183.621 4.74 184.561 4.96667 185.388 5.42C186.228 5.87333 186.874 6.52 187.328 7.36C187.794 8.18667 188.028 9.14 188.028 10.22ZM185.128 9.42C185.114 8.7 184.854 8.12667 184.348 7.7C183.841 7.26 183.221 7.04 182.488 7.04C181.794 7.04 181.208 7.25333 180.728 7.68C180.261 8.09333 179.974 8.67333 179.868 9.42H185.128ZM194.691 13.42L197.491 4.92H200.471L196.371 16H192.971L188.891 4.92H191.891L194.691 13.42ZM203.464 3.6C202.971 3.6 202.557 3.44667 202.224 3.14C201.904 2.82 201.744 2.42667 201.744 1.96C201.744 1.49333 201.904 1.10667 202.224 0.799999C202.557 0.479999 202.971 0.319999 203.464 0.319999C203.957 0.319999 204.364 0.479999 204.684 0.799999C205.017 1.10667 205.184 1.49333 205.184 1.96C205.184 2.42667 205.017 2.82 204.684 3.14C204.364 3.44667 203.957 3.6 203.464 3.6ZM204.844 4.92V16H202.044V4.92H204.844ZM206.89 10.46C206.89 9.31333 207.124 8.31333 207.59 7.46C208.057 6.59333 208.704 5.92667 209.53 5.46C210.357 4.98 211.304 4.74 212.37 4.74C213.744 4.74 214.877 5.08667 215.77 5.78C216.677 6.46 217.284 7.42 217.59 8.66H214.57C214.41 8.18 214.137 7.80667 213.75 7.54C213.377 7.26 212.91 7.12 212.35 7.12C211.55 7.12 210.917 7.41333 210.45 8C209.984 8.57333 209.75 9.39333 209.75 10.46C209.75 11.5133 209.984 12.3333 210.45 12.92C210.917 13.4933 211.55 13.78 212.35 13.78C213.484 13.78 214.224 13.2733 214.57 12.26H217.59C217.284 13.46 216.677 14.4133 215.77 15.12C214.864 15.8267 213.73 16.18 212.37 16.18C211.304 16.18 210.357 15.9467 209.53 15.48C208.704 15 208.057 14.3333 207.59 13.48C207.124 12.6133 206.89 11.6067 206.89 10.46ZM229.942 10.22C229.942 10.62 229.915 10.98 229.862 11.3H221.762C221.828 12.1 222.108 12.7267 222.602 13.18C223.095 13.6333 223.702 13.86 224.422 13.86C225.462 13.86 226.202 13.4133 226.642 12.52H229.662C229.342 13.5867 228.728 14.4667 227.822 15.16C226.915 15.84 225.802 16.18 224.482 16.18C223.415 16.18 222.455 15.9467 221.602 15.48C220.762 15 220.102 14.3267 219.622 13.46C219.155 12.5933 218.922 11.5933 218.922 10.46C218.922 9.31333 219.155 8.30667 219.622 7.44C220.088 6.57333 220.742 5.90667 221.582 5.44C222.422 4.97333 223.388 4.74 224.482 4.74C225.535 4.74 226.475 4.96667 227.302 5.42C228.142 5.87333 228.788 6.52 229.242 7.36C229.708 8.18667 229.942 9.14 229.942 10.22ZM227.042 9.42C227.028 8.7 226.768 8.12667 226.262 7.7C225.755 7.26 225.135 7.04 224.402 7.04C223.708 7.04 223.122 7.25333 222.642 7.68C222.175 8.09333 221.888 8.67333 221.782 9.42H227.042ZM236.225 16.18C235.319 16.18 234.505 16.02 233.785 15.7C233.065 15.3667 232.492 14.92 232.065 14.36C231.652 13.8 231.425 13.18 231.385 12.5H234.205C234.259 12.9267 234.465 13.28 234.825 13.56C235.199 13.84 235.659 13.98 236.205 13.98C236.739 13.98 237.152 13.8733 237.445 13.66C237.752 13.4467 237.905 13.1733 237.905 12.84C237.905 12.48 237.719 12.2133 237.345 12.04C236.985 11.8533 236.405 11.6533 235.605 11.44C234.779 11.24 234.099 11.0333 233.565 10.82C233.045 10.6067 232.592 10.28 232.205 9.84C231.832 9.4 231.645 8.80667 231.645 8.06C231.645 7.44667 231.819 6.88667 232.165 6.38C232.525 5.87333 233.032 5.47333 233.685 5.18C234.352 4.88667 235.132 4.74 236.025 4.74C237.345 4.74 238.399 5.07333 239.185 5.74C239.972 6.39333 240.405 7.28 240.485 8.4H237.805C237.765 7.96 237.579 7.61333 237.245 7.36C236.925 7.09333 236.492 6.96 235.945 6.96C235.439 6.96 235.045 7.05333 234.765 7.24C234.499 7.42667 234.365 7.68667 234.365 8.02C234.365 8.39333 234.552 8.68 234.925 8.88C235.299 9.06667 235.879 9.26 236.665 9.46C237.465 9.66 238.125 9.86667 238.645 10.08C239.165 10.2933 239.612 10.6267 239.985 11.08C240.372 11.52 240.572 12.1067 240.585 12.84C240.585 13.48 240.405 14.0533 240.045 14.56C239.699 15.0667 239.192 15.4667 238.525 15.76C237.872 16.04 237.105 16.18 236.225 16.18ZM9.94 43.34H4.38L3.46 46H0.52L5.54 32.02H8.8L13.82 46H10.86L9.94 43.34ZM9.18 41.1L7.16 35.26L5.14 41.1H9.18ZM18.9564 37.22V42.58C18.9564 42.9533 19.0431 43.2267 19.2164 43.4C19.4031 43.56 19.7097 43.64 20.1364 43.64H21.4364V46H19.6764C17.3164 46 16.1364 44.8533 16.1364 42.56V37.22H14.8164V34.92H16.1364V32.18H18.9564V34.92H21.4364V37.22H18.9564ZM39.7959 32.04V46H36.9959V40.06H31.0159V46H28.2159V32.04H31.0159V37.78H36.9959V32.04H39.7959ZM47.4719 46.18C46.4052 46.18 45.4452 45.9467 44.5919 45.48C43.7385 45 43.0652 44.3267 42.5719 43.46C42.0919 42.5933 41.8519 41.5933 41.8519 40.46C41.8519 39.3267 42.0985 38.3267 42.5919 37.46C43.0985 36.5933 43.7852 35.9267 44.6519 35.46C45.5185 34.98 46.4852 34.74 47.5519 34.74C48.6185 34.74 49.5852 34.98 50.4519 35.46C51.3185 35.9267 51.9985 36.5933 52.4919 37.46C52.9985 38.3267 53.2519 39.3267 53.2519 40.46C53.2519 41.5933 52.9919 42.5933 52.4719 43.46C51.9652 44.3267 51.2719 45 50.3919 45.48C49.5252 45.9467 48.5519 46.18 47.4719 46.18ZM47.4719 43.74C47.9785 43.74 48.4519 43.62 48.8919 43.38C49.3452 43.1267 49.7052 42.7533 49.9719 42.26C50.2385 41.7667 50.3719 41.1667 50.3719 40.46C50.3719 39.4067 50.0919 38.6 49.5319 38.04C48.9852 37.4667 48.3119 37.18 47.5119 37.18C46.7119 37.18 46.0385 37.4667 45.4919 38.04C44.9585 38.6 44.6919 39.4067 44.6919 40.46C44.6919 41.5133 44.9519 42.3267 45.4719 42.9C46.0052 43.46 46.6719 43.74 47.4719 43.74ZM69.0658 34.76C70.4258 34.76 71.5191 35.18 72.3458 36.02C73.1858 36.8467 73.6058 38.0067 73.6058 39.5V46H70.8058V39.88C70.8058 39.0133 70.5858 38.3533 70.1458 37.9C69.7058 37.4333 69.1058 37.2 68.3458 37.2C67.5858 37.2 66.9791 37.4333 66.5258 37.9C66.0858 38.3533 65.8658 39.0133 65.8658 39.88V46H63.0658V39.88C63.0658 39.0133 62.8458 38.3533 62.4058 37.9C61.9658 37.4333 61.3658 37.2 60.6058 37.2C59.8324 37.2 59.2191 37.4333 58.7658 37.9C58.3258 38.3533 58.1058 39.0133 58.1058 39.88V46H55.3058V34.92H58.1058V36.26C58.4658 35.7933 58.9258 35.4267 59.4858 35.16C60.0591 34.8933 60.6858 34.76 61.3658 34.76C62.2324 34.76 63.0058 34.9467 63.6858 35.32C64.3658 35.68 64.8924 36.2 65.2658 36.88C65.6258 36.24 66.1458 35.7267 66.8258 35.34C67.5191 34.9533 68.2658 34.76 69.0658 34.76ZM86.5628 40.22C86.5628 40.62 86.5361 40.98 86.4828 41.3H78.3828C78.4495 42.1 78.7295 42.7267 79.2228 43.18C79.7161 43.6333 80.3228 43.86 81.0428 43.86C82.0828 43.86 82.8228 43.4133 83.2628 42.52H86.2828C85.9628 43.5867 85.3495 44.4667 84.4428 45.16C83.5361 45.84 82.4228 46.18 81.1028 46.18C80.0361 46.18 79.0761 45.9467 78.2228 45.48C77.3828 45 76.7228 44.3267 76.2428 43.46C75.7761 42.5933 75.5428 41.5933 75.5428 40.46C75.5428 39.3133 75.7761 38.3067 76.2428 37.44C76.7095 36.5733 77.3628 35.9067 78.2028 35.44C79.0428 34.9733 80.0095 34.74 81.1028 34.74C82.1561 34.74 83.0961 34.9667 83.9228 35.42C84.7628 35.8733 85.4095 36.52 85.8628 37.36C86.3295 38.1867 86.5628 39.14 86.5628 40.22ZM83.6628 39.42C83.6495 38.7 83.3895 38.1267 82.8828 37.7C82.3761 37.26 81.7561 37.04 81.0228 37.04C80.3295 37.04 79.7428 37.2533 79.2628 37.68C78.7961 38.0933 78.5095 38.6733 78.4028 39.42H83.6628ZM99.8522 46.14C98.5455 46.14 97.3455 45.8333 96.2522 45.22C95.1589 44.6067 94.2922 43.76 93.6522 42.68C93.0122 41.5867 92.6922 40.3533 92.6922 38.98C92.6922 37.62 93.0122 36.4 93.6522 35.32C94.2922 34.2267 95.1589 33.3733 96.2522 32.76C97.3455 32.1467 98.5455 31.84 99.8522 31.84C101.172 31.84 102.372 32.1467 103.452 32.76C104.546 33.3733 105.406 34.2267 106.032 35.32C106.672 36.4 106.992 37.62 106.992 38.98C106.992 40.3533 106.672 41.5867 106.032 42.68C105.406 43.76 104.546 44.6067 103.452 45.22C102.359 45.8333 101.159 46.14 99.8522 46.14ZM99.8522 43.64C100.692 43.64 101.432 43.4533 102.072 43.08C102.712 42.6933 103.212 42.1467 103.572 41.44C103.932 40.7333 104.112 39.9133 104.112 38.98C104.112 38.0467 103.932 37.2333 103.572 36.54C103.212 35.8333 102.712 35.2933 102.072 34.92C101.432 34.5467 100.692 34.36 99.8522 34.36C99.0122 34.36 98.2655 34.5467 97.6122 34.92C96.9722 35.2933 96.4722 35.8333 96.1122 36.54C95.7522 37.2333 95.5722 38.0467 95.5722 38.98C95.5722 39.9133 95.7522 40.7333 96.1122 41.44C96.4722 42.1467 96.9722 42.6933 97.6122 43.08C98.2655 43.4533 99.0122 43.64 99.8522 43.64ZM111.875 36.64C112.235 36.0533 112.702 35.5933 113.275 35.26C113.862 34.9267 114.529 34.76 115.275 34.76V37.7H114.535C113.655 37.7 112.989 37.9067 112.535 38.32C112.095 38.7333 111.875 39.4533 111.875 40.48V46H109.075V34.92H111.875V36.64ZM130.487 43.34H124.927L124.007 46H121.067L126.087 32.02H129.347L134.367 46H131.407L130.487 43.34ZM129.727 41.1L127.707 35.26L125.687 41.1H129.727ZM139.503 37.22V42.58C139.503 42.9533 139.59 43.2267 139.763 43.4C139.95 43.56 140.257 43.64 140.683 43.64H141.983V46H140.223C137.863 46 136.683 44.8533 136.683 42.56V37.22H135.363V34.92H136.683V32.18H139.503V34.92H141.983V37.22H139.503ZM167.423 32.04L163.523 46H160.223L157.603 36.06L154.863 46L151.583 46.02L147.823 32.04H150.823L153.283 42.88L156.123 32.04H159.243L161.923 42.82L164.403 32.04H167.423ZM174.171 46.18C173.104 46.18 172.144 45.9467 171.291 45.48C170.438 45 169.764 44.3267 169.271 43.46C168.791 42.5933 168.551 41.5933 168.551 40.46C168.551 39.3267 168.798 38.3267 169.291 37.46C169.798 36.5933 170.484 35.9267 171.351 35.46C172.218 34.98 173.184 34.74 174.251 34.74C175.318 34.74 176.284 34.98 177.151 35.46C178.018 35.9267 178.698 36.5933 179.191 37.46C179.698 38.3267 179.951 39.3267 179.951 40.46C179.951 41.5933 179.691 42.5933 179.171 43.46C178.664 44.3267 177.971 45 177.091 45.48C176.224 45.9467 175.251 46.18 174.171 46.18ZM174.171 43.74C174.678 43.74 175.151 43.62 175.591 43.38C176.044 43.1267 176.404 42.7533 176.671 42.26C176.938 41.7667 177.071 41.1667 177.071 40.46C177.071 39.4067 176.791 38.6 176.231 38.04C175.684 37.4667 175.011 37.18 174.211 37.18C173.411 37.18 172.738 37.4667 172.191 38.04C171.658 38.6 171.391 39.4067 171.391 40.46C171.391 41.5133 171.651 42.3267 172.171 42.9C172.704 43.46 173.371 43.74 174.171 43.74ZM184.805 36.64C185.165 36.0533 185.632 35.5933 186.205 35.26C186.792 34.9267 187.458 34.76 188.205 34.76V37.7H187.465C186.585 37.7 185.918 37.9067 185.465 38.32C185.025 38.7333 184.805 39.4533 184.805 40.48V46H182.005V34.92H184.805V36.64ZM196.651 46L192.891 41.28V46H190.091V31.2H192.891V39.62L196.611 34.92H200.251L195.371 40.48L200.291 46H196.651Z" fill="url(#paint0_linear_78_2867)"/>
<defs>
<linearGradient id="paint0_linear_78_2867" x1="16.9984" y1="-6" x2="232.648" y2="40.2257" gradientUnits="userSpaceOnUse">
<stop stop-color="#F48251"/>
<stop offset="0.204277" stop-color="#F49795"/>
<stop offset="0.423031" stop-color="#D20202"/>
<stop offset="0.704286" stop-color="#F48251"/>
<stop offset="1" stop-color="#BB4444"/>
</linearGradient>
</defs>
</svg>
