<svg width="227" height="55" viewBox="0 0 227 55" fill="none" xmlns="http://www.w3.org/2000/svg">
<path d="M20.8994 1.152L13.2674 18H12.0914L10.1474 2.856L2.85144 18H1.67544L0.0674376 1.152H1.26744L2.58744 16.416L9.88344 1.152H11.1314L12.9554 16.416L19.6994 1.152H20.8994ZM28.5965 4.8C29.7005 4.8 30.6365 5.016 31.4045 5.448C32.1885 5.864 32.7725 6.432 33.1565 7.152C33.5565 7.856 33.7565 8.648 33.7565 9.528C33.7565 9.912 33.7245 10.264 33.6605 10.584C33.5645 11.16 33.4685 11.592 33.3725 11.88H22.1165C22.0525 12.392 22.0205 12.76 22.0205 12.984C22.0205 14.36 22.4365 15.416 23.2685 16.152C24.1005 16.888 25.1485 17.256 26.4125 17.256C27.6765 17.256 28.7965 16.944 29.7725 16.32C30.7645 15.68 31.4685 14.816 31.8845 13.728H33.0125C32.5005 15.056 31.6445 16.136 30.4445 16.968C29.2605 17.784 27.8605 18.192 26.2445 18.192C24.6445 18.192 23.3565 17.728 22.3805 16.8C21.4205 15.872 20.9405 14.608 20.9405 13.008C20.9405 12.512 20.9885 12 21.0845 11.472C21.3245 10.112 21.8045 8.928 22.5245 7.92C23.2445 6.912 24.1245 6.144 25.1645 5.616C26.2205 5.072 27.3645 4.8 28.5965 4.8ZM32.5085 11.04C32.6205 10.576 32.6765 10.104 32.6765 9.624C32.6765 8.36 32.2685 7.392 31.4525 6.72C30.6525 6.048 29.6365 5.712 28.4045 5.712C27.4925 5.712 26.6125 5.912 25.7645 6.312C24.9165 6.712 24.1805 7.312 23.5565 8.112C22.9325 8.912 22.5005 9.888 22.2605 11.04H32.5085ZM61.2838 1.512L58.3558 18H57.2758L59.8198 3.744L50.9398 18H50.0758L46.2358 3.84L43.7158 18H42.6357L45.5638 1.512H46.6918L50.7718 16.56L60.1558 1.512H61.2838ZM62.8033 11.472C63.0433 10.128 63.5153 8.952 64.2193 7.944C64.9393 6.936 65.8273 6.16 66.8833 5.616C67.9393 5.072 69.0753 4.8 70.2913 4.8C71.6513 4.8 72.7473 5.136 73.5793 5.808C74.4273 6.48 74.9553 7.336 75.1633 8.376L75.7633 4.968H76.8433L74.5153 18H73.4593L74.0593 14.568C73.4993 15.624 72.6753 16.496 71.5873 17.184C70.4993 17.856 69.2673 18.192 67.8913 18.192C66.3073 18.192 65.0353 17.728 64.0753 16.8C63.1313 15.856 62.6593 14.584 62.6593 12.984C62.6593 12.504 62.7073 12 62.8033 11.472ZM74.6113 11.472C74.6913 10.992 74.7313 10.568 74.7313 10.2C74.7313 8.84 74.3233 7.76 73.5073 6.96C72.6913 6.144 71.6113 5.736 70.2673 5.736C69.2113 5.736 68.2353 5.968 67.3393 6.432C66.4593 6.88 65.7153 7.536 65.1073 8.4C64.5153 9.264 64.1153 10.288 63.9073 11.472C63.8273 12 63.7873 12.448 63.7873 12.816C63.7873 14.208 64.1793 15.296 64.9633 16.08C65.7633 16.848 66.8513 17.232 68.2273 17.232C69.2353 17.232 70.1873 17 71.0833 16.536C71.9953 16.056 72.7553 15.384 73.3633 14.52C73.9873 13.64 74.4033 12.624 74.6113 11.472ZM81.4957 11.448L86.7277 18H85.2397L80.6077 12.024L79.5517 18H78.4717L81.6157 0.24H82.6957L80.8237 10.872L87.4477 4.968H88.9597L81.4957 11.448ZM96.9403 4.8C98.0443 4.8 98.9803 5.016 99.7483 5.448C100.532 5.864 101.116 6.432 101.5 7.152C101.9 7.856 102.1 8.648 102.1 9.528C102.1 9.912 102.068 10.264 102.004 10.584C101.908 11.16 101.812 11.592 101.716 11.88H90.4603C90.3963 12.392 90.3643 12.76 90.3643 12.984C90.3643 14.36 90.7803 15.416 91.6123 16.152C92.4443 16.888 93.4923 17.256 94.7563 17.256C96.0203 17.256 97.1403 16.944 98.1163 16.32C99.1083 15.68 99.8123 14.816 100.228 13.728H101.356C100.844 15.056 99.9883 16.136 98.7883 16.968C97.6043 17.784 96.2043 18.192 94.5883 18.192C92.9883 18.192 91.7003 17.728 90.7243 16.8C89.7643 15.872 89.2843 14.608 89.2843 13.008C89.2843 12.512 89.3323 12 89.4283 11.472C89.6683 10.112 90.1483 8.928 90.8683 7.92C91.5883 6.912 92.4683 6.144 93.5083 5.616C94.5643 5.072 95.7083 4.8 96.9403 4.8ZM100.852 11.04C100.964 10.576 101.02 10.104 101.02 9.624C101.02 8.36 100.612 7.392 99.7963 6.72C98.9963 6.048 97.9803 5.712 96.7483 5.712C95.8363 5.712 94.9563 5.912 94.1083 6.312C93.2603 6.712 92.5243 7.312 91.9003 8.112C91.2763 8.912 90.8443 9.888 90.6043 11.04H100.852ZM115.06 1.152L112.06 18H110.979L113.98 1.152H115.06ZM118.251 14.52C118.187 14.84 118.155 15.16 118.155 15.48C118.155 16.056 118.315 16.464 118.635 16.704C118.955 16.928 119.483 17.04 120.219 17.04H121.659L121.491 18H119.859C118.899 18 118.187 17.816 117.723 17.448C117.275 17.08 117.051 16.472 117.051 15.624C117.051 15.256 117.083 14.888 117.147 14.52L118.683 5.904H116.715L116.883 4.968H118.851L119.427 1.656H120.531L119.955 4.968H123.795L123.627 5.904H119.787L118.251 14.52ZM135.282 2.04L134.034 9.12H140.754L140.586 9.984H133.89L132.618 17.112H140.058L139.89 18H131.37L134.37 1.152H142.866L142.698 2.04H135.282ZM143.639 11.472C143.879 10.128 144.351 8.952 145.055 7.944C145.775 6.936 146.663 6.16 147.719 5.616C148.775 5.072 149.911 4.8 151.127 4.8C152.487 4.8 153.583 5.136 154.415 5.808C155.263 6.48 155.791 7.336 155.999 8.376L156.599 4.968H157.679L155.351 18H154.295L154.895 14.568C154.335 15.624 153.511 16.496 152.423 17.184C151.335 17.856 150.103 18.192 148.727 18.192C147.143 18.192 145.871 17.728 144.911 16.8C143.967 15.856 143.495 14.584 143.495 12.984C143.495 12.504 143.543 12 143.639 11.472ZM155.447 11.472C155.527 10.992 155.567 10.568 155.567 10.2C155.567 8.84 155.159 7.76 154.343 6.96C153.527 6.144 152.447 5.736 151.103 5.736C150.047 5.736 149.071 5.968 148.175 6.432C147.295 6.88 146.551 7.536 145.943 8.4C145.351 9.264 144.951 10.288 144.743 11.472C144.663 12 144.623 12.448 144.623 12.816C144.623 14.208 145.015 15.296 145.799 16.08C146.599 16.848 147.687 17.232 149.063 17.232C150.071 17.232 151.023 17 151.919 16.536C152.831 16.056 153.591 15.384 154.199 14.52C154.823 13.64 155.239 12.624 155.447 11.472ZM163.412 18.192C162.068 18.192 160.996 17.872 160.196 17.232C159.412 16.592 159.068 15.68 159.164 14.496H160.244C160.164 15.344 160.404 16.024 160.964 16.536C161.54 17.032 162.38 17.28 163.484 17.28C164.62 17.28 165.524 17.032 166.196 16.536C166.868 16.024 167.204 15.368 167.204 14.568C167.204 14.088 167.068 13.688 166.796 13.368C166.524 13.048 166.188 12.792 165.788 12.6C165.388 12.408 164.828 12.184 164.108 11.928C163.308 11.656 162.652 11.392 162.14 11.136C161.644 10.88 161.22 10.528 160.868 10.08C160.532 9.616 160.364 9.032 160.364 8.328C160.364 7.64 160.564 7.032 160.964 6.504C161.364 5.96 161.916 5.544 162.62 5.256C163.324 4.952 164.108 4.8 164.972 4.8C166.172 4.8 167.172 5.112 167.972 5.736C168.772 6.344 169.172 7.152 169.172 8.16C169.172 8.368 169.164 8.528 169.148 8.64H168.092C168.108 8.56 168.116 8.432 168.116 8.256C168.116 7.488 167.804 6.872 167.18 6.408C166.572 5.928 165.804 5.688 164.876 5.688C163.884 5.688 163.06 5.928 162.404 6.408C161.764 6.872 161.444 7.504 161.444 8.304C161.444 8.832 161.588 9.272 161.876 9.624C162.164 9.96 162.516 10.232 162.932 10.44C163.364 10.632 163.94 10.856 164.66 11.112C165.46 11.384 166.092 11.64 166.556 11.88C167.036 12.12 167.444 12.456 167.78 12.888C168.116 13.32 168.284 13.872 168.284 14.544C168.284 15.664 167.828 16.552 166.916 17.208C166.02 17.864 164.852 18.192 163.412 18.192ZM173.181 4.968L175.989 16.656L182.589 4.968H183.741L172.773 24.12H171.597L175.125 17.976L172.005 4.968H173.181ZM202.519 1.152L202.351 2.04H194.767L193.519 9.12H200.167L199.999 10.008H193.351L191.935 18H190.854L193.855 1.152H202.519ZM208.169 18.192C206.537 18.192 205.225 17.72 204.233 16.776C203.257 15.832 202.769 14.552 202.769 12.936C202.769 11.464 203.097 10.104 203.753 8.856C204.425 7.608 205.353 6.624 206.537 5.904C207.721 5.168 209.041 4.8 210.497 4.8C211.553 4.8 212.489 5.016 213.305 5.448C214.121 5.864 214.753 6.472 215.201 7.272C215.665 8.056 215.897 8.984 215.897 10.056C215.897 11.528 215.561 12.888 214.889 14.136C214.217 15.384 213.289 16.376 212.105 17.112C210.937 17.832 209.625 18.192 208.169 18.192ZM208.313 17.256C209.561 17.256 210.673 16.928 211.649 16.272C212.641 15.616 213.409 14.744 213.953 13.656C214.513 12.568 214.793 11.384 214.793 10.104C214.793 8.68 214.369 7.592 213.521 6.84C212.673 6.088 211.609 5.712 210.329 5.712C209.065 5.712 207.945 6.04 206.969 6.696C205.993 7.352 205.233 8.232 204.689 9.336C204.145 10.424 203.873 11.6 203.873 12.864C203.873 14.288 204.289 15.376 205.121 16.128C205.969 16.88 207.033 17.256 208.313 17.256ZM220.782 7.776C221.294 6.784 221.998 6.024 222.894 5.496C223.806 4.968 224.886 4.704 226.134 4.704L225.918 5.832H225.582C224.302 5.832 223.174 6.2 222.198 6.936C221.222 7.656 220.59 8.84 220.302 10.488L218.958 18H217.878L220.206 4.968H221.286L220.782 7.776ZM35.6957 37.152L28.5917 47.184L27.3917 54H26.3117L27.5117 47.184L23.9357 37.152H25.1837L28.2317 46.152L34.4477 37.152H35.6957ZM41.0481 54.192C39.4161 54.192 38.1041 53.72 37.1121 52.776C36.1361 51.832 35.6481 50.552 35.6481 48.936C35.6481 47.464 35.9761 46.104 36.6321 44.856C37.3041 43.608 38.2321 42.624 39.4161 41.904C40.6001 41.168 41.9201 40.8 43.3761 40.8C44.4321 40.8 45.3681 41.016 46.1841 41.448C47.0001 41.864 47.6321 42.472 48.0801 43.272C48.5441 44.056 48.7761 44.984 48.7761 46.056C48.7761 47.528 48.4401 48.888 47.7681 50.136C47.0961 51.384 46.1681 52.376 44.9841 53.112C43.8161 53.832 42.5041 54.192 41.0481 54.192ZM41.1921 53.256C42.4401 53.256 43.5521 52.928 44.5281 52.272C45.5201 51.616 46.2881 50.744 46.8321 49.656C47.3921 48.568 47.6721 47.384 47.6721 46.104C47.6721 44.68 47.2481 43.592 46.4001 42.84C45.5521 42.088 44.4881 41.712 43.2081 41.712C41.9441 41.712 40.8241 42.04 39.8481 42.696C38.8721 43.352 38.1121 44.232 37.5681 45.336C37.0241 46.424 36.7521 47.6 36.7521 48.864C36.7521 50.288 37.1681 51.376 38.0001 52.128C38.8481 52.88 39.9121 53.256 41.1921 53.256ZM64.0768 40.968L61.7728 54H60.6928L61.1968 51.192C60.6528 52.168 59.9088 52.92 58.9648 53.448C58.0208 53.96 56.9968 54.216 55.8928 54.216C54.5648 54.216 53.4928 53.864 52.6768 53.16C51.8768 52.44 51.4768 51.376 51.4768 49.968C51.4768 49.44 51.5168 48.968 51.5968 48.552L52.9648 40.968H54.0208L52.6768 48.48C52.5968 48.992 52.5568 49.408 52.5568 49.728C52.5568 50.896 52.8768 51.784 53.5168 52.392C54.1568 52.984 55.0528 53.28 56.2048 53.28C57.6128 53.28 58.8128 52.832 59.8048 51.936C60.8128 51.024 61.4608 49.696 61.7488 47.952V48.024L62.9968 40.968H64.0768ZM95.3252 37.152L87.6932 54H86.5172L84.5732 38.856L77.2772 54H76.1012L74.4932 37.152H75.6932L77.0132 52.416L84.3092 37.152H85.5572L87.3812 52.416L94.1252 37.152H95.3252ZM98.3903 38.064C98.1663 38.064 97.9823 38 97.8383 37.872C97.6943 37.728 97.6223 37.544 97.6223 37.32C97.6223 37 97.7343 36.736 97.9583 36.528C98.1823 36.304 98.4383 36.192 98.7263 36.192C98.9503 36.192 99.1343 36.264 99.2783 36.408C99.4383 36.552 99.5183 36.736 99.5183 36.96C99.5183 37.28 99.3983 37.544 99.1583 37.752C98.9343 37.96 98.6783 38.064 98.3903 38.064ZM98.4383 40.968L96.1103 54H95.0303L97.3583 40.968H98.4383ZM102.301 50.52C102.237 50.84 102.205 51.16 102.205 51.48C102.205 52.056 102.365 52.464 102.685 52.704C103.005 52.928 103.533 53.04 104.269 53.04H105.709L105.541 54H103.909C102.949 54 102.237 53.816 101.773 53.448C101.325 53.08 101.101 52.472 101.101 51.624C101.101 51.256 101.133 50.888 101.197 50.52L102.733 41.904H100.765L100.933 40.968H102.901L103.477 37.656H104.581L104.005 40.968H107.845L107.677 41.904H103.837L102.301 50.52ZM116.67 40.704C117.966 40.704 119.014 41.064 119.814 41.784C120.614 42.488 121.014 43.536 121.014 44.928C121.014 45.36 120.966 45.84 120.87 46.368L119.526 54H118.47L119.814 46.44C119.894 45.928 119.934 45.504 119.934 45.168C119.934 44.016 119.614 43.144 118.974 42.552C118.334 41.944 117.438 41.64 116.286 41.64C114.878 41.64 113.678 42.096 112.686 43.008C111.694 43.904 111.038 45.224 110.718 46.968V46.944L109.47 54H108.39L111.534 36.24H112.614L111.294 43.752C111.838 42.76 112.582 42.008 113.526 41.496C114.486 40.968 115.534 40.704 116.67 40.704ZM143.046 42.288C143.046 43.136 142.846 43.936 142.446 44.688C142.046 45.44 141.406 46.056 140.526 46.536C139.646 47 138.518 47.232 137.142 47.232H134.118V54H131.382V37.32H137.142C138.422 37.32 139.502 37.544 140.382 37.992C141.278 38.424 141.942 39.016 142.374 39.768C142.822 40.52 143.046 41.36 143.046 42.288ZM137.142 45C138.182 45 138.958 44.768 139.47 44.304C139.982 43.824 140.238 43.152 140.238 42.288C140.238 40.464 139.206 39.552 137.142 39.552H134.118V45H137.142ZM148.391 42.696C148.791 42.024 149.319 41.504 149.975 41.136C150.647 40.752 151.439 40.56 152.351 40.56V43.392H151.655C150.583 43.392 149.767 43.664 149.207 44.208C148.663 44.752 148.391 45.696 148.391 47.04V54H145.655V40.776H148.391V42.696ZM160.602 54.216C159.354 54.216 158.226 53.936 157.218 53.376C156.21 52.8 155.418 52 154.842 50.976C154.266 49.936 153.978 48.736 153.978 47.376C153.978 46.032 154.274 44.84 154.866 43.8C155.458 42.76 156.266 41.96 157.29 41.4C158.314 40.84 159.458 40.56 160.722 40.56C161.986 40.56 163.13 40.84 164.154 41.4C165.178 41.96 165.986 42.76 166.578 43.8C167.17 44.84 167.466 46.032 167.466 47.376C167.466 48.72 167.162 49.912 166.554 50.952C165.946 51.992 165.114 52.8 164.058 53.376C163.018 53.936 161.866 54.216 160.602 54.216ZM160.602 51.84C161.306 51.84 161.962 51.672 162.57 51.336C163.194 51 163.698 50.496 164.082 49.824C164.466 49.152 164.658 48.336 164.658 47.376C164.658 46.416 164.474 45.608 164.106 44.952C163.738 44.28 163.25 43.776 162.642 43.44C162.034 43.104 161.378 42.936 160.674 42.936C159.97 42.936 159.314 43.104 158.706 43.44C158.114 43.776 157.642 44.28 157.29 44.952C156.938 45.608 156.762 46.416 156.762 47.376C156.762 48.8 157.122 49.904 157.842 50.688C158.578 51.456 159.498 51.84 160.602 51.84ZM175.835 47.304L180.107 54H177.011L174.155 49.512L171.467 54H168.611L172.883 47.496L168.611 40.776H171.707L174.563 45.264L177.251 40.776H180.107L175.835 47.304ZM183.54 39.024C183.044 39.024 182.628 38.856 182.292 38.52C181.956 38.184 181.788 37.768 181.788 37.272C181.788 36.776 181.956 36.36 182.292 36.024C182.628 35.688 183.044 35.52 183.54 35.52C184.02 35.52 184.428 35.688 184.764 36.024C185.1 36.36 185.268 36.776 185.268 37.272C185.268 37.768 185.1 38.184 184.764 38.52C184.428 38.856 184.02 39.024 183.54 39.024ZM184.884 40.776V54H182.148V40.776H184.884ZM200.596 47.064C200.596 47.56 200.564 48.008 200.5 48.408H190.396C190.476 49.464 190.868 50.312 191.572 50.952C192.276 51.592 193.14 51.912 194.164 51.912C195.636 51.912 196.676 51.296 197.284 50.064H200.236C199.836 51.28 199.108 52.28 198.052 53.064C197.012 53.832 195.716 54.216 194.164 54.216C192.9 54.216 191.764 53.936 190.756 53.376C189.764 52.8 188.98 52 188.404 50.976C187.844 49.936 187.564 48.736 187.564 47.376C187.564 46.016 187.836 44.824 188.38 43.8C188.94 42.76 189.716 41.96 190.708 41.4C191.716 40.84 192.868 40.56 194.164 40.56C195.412 40.56 196.524 40.832 197.5 41.376C198.476 41.92 199.236 42.688 199.78 43.68C200.324 44.656 200.596 45.784 200.596 47.064ZM197.74 46.2C197.724 45.192 197.364 44.384 196.66 43.776C195.956 43.168 195.084 42.864 194.044 42.864C193.1 42.864 192.292 43.168 191.62 43.776C190.948 44.368 190.548 45.176 190.42 46.2H197.74Z" fill="#F48251"/>
</svg>
