<svg width="27" height="27" viewBox="0 0 27 27" fill="none" xmlns="http://www.w3.org/2000/svg">
<path d="M19.7999 6.30039H21.5999M8.0999 0.900391H18.8999C20.8095 0.900391 22.6408 1.65896 23.9911 3.00922C25.3413 4.35948 26.0999 6.19083 26.0999 8.10039V18.9004C26.0999 20.81 25.3413 22.6413 23.9911 23.9916C22.6408 25.3418 20.8095 26.1004 18.8999 26.1004H8.0999C6.19034 26.1004 4.359 25.3418 3.00873 23.9916C1.65847 22.6413 0.899902 20.81 0.899902 18.9004V8.10039C0.899902 6.19083 1.65847 4.35948 3.00873 3.00922C4.359 1.65896 6.19034 0.900391 8.0999 0.900391ZM13.4999 18.9004C12.0677 18.9004 10.6942 18.3315 9.68153 17.3188C8.66883 16.3061 8.0999 14.9326 8.0999 13.5004C8.0999 12.0682 8.66883 10.6947 9.68153 9.68201C10.6942 8.66932 12.0677 8.10039 13.4999 8.10039C14.9321 8.10039 16.3056 8.66932 17.3183 9.68201C18.331 10.6947 18.8999 12.0682 18.8999 13.5004C18.8999 14.9326 18.331 16.3061 17.3183 17.3188C16.3056 18.3315 14.9321 18.9004 13.4999 18.9004Z" stroke="white"/>
</svg>
